<svg id="Icons" height="512" viewBox="0 0 74 74" width="512" xmlns="http://www.w3.org/2000/svg"><path d="m34.41 72.01h-2.97a1 1 0 1 1 0-2h2.97a1 1 0 0 1 0 2z"/><path d="m69 72.01h-17.68a1 1 0 0 1 0-2h17.68a1 1 0 0 0 1-1v-43.5h-66v43.5a1 1 0 0 0 1 1h19.44a1 1 0 0 1 0 2h-19.44a3 3 0 0 1 -3-3v-44.5a1 1 0 0 1 1-1h68a1 1 0 0 1 1 1v44.5a3 3 0 0 1 -3 3z"/><path d="m44.32 72.01h-2.91a1 1 0 0 1 0-2h2.91a1 1 0 1 1 0 2z"/><path d="m71 25.51h-68a1 1 0 0 1 -1-1v-13a3 3 0 0 1 3-3h10a1 1 0 0 1 0 2h-10a1 1 0 0 0 -1 1v12h66v-12a1 1 0 0 0 -1-1h-10a1 1 0 0 1 0-2h10a3 3 0 0 1 3 3v13a1 1 0 0 1 -1 1z"/><path d="m52 10.51h-30a1 1 0 0 1 0-2h30a1 1 0 0 1 0 2z"/><path d="m55.5 17.06a4.5 4.5 0 0 1 -4.5-4.5v-6.091a4.5 4.5 0 0 1 9 0v6.091a4.5 4.5 0 0 1 -4.5 4.5zm0-13.091a2.5 2.5 0 0 0 -2.5 2.5v6.091a2.5 2.5 0 1 0 5 0v-6.091a2.5 2.5 0 0 0 -2.5-2.5z"/><path d="m18.5 17.06a4.5 4.5 0 0 1 -4.5-4.5v-6.091a4.5 4.5 0 0 1 9 0v6.091a4.5 4.5 0 0 1 -4.5 4.5zm0-13.091a2.5 2.5 0 0 0 -2.5 2.5v6.091a2.5 2.5 0 1 0 5 0v-6.091a2.5 2.5 0 0 0 -2.5-2.5z"/><path d="m63.812 39.92h-6.321a2 2 0 0 1 -2-2v-6.32a2 2 0 0 1 2-2h6.321a2 2 0 0 1 2 2v6.32a2 2 0 0 1 -2 2zm-6.321-8.32v6.32h6.321v-6.32z"/><path d="m48.044 39.92h-6.321a2 2 0 0 1 -2-2v-6.32a2 2 0 0 1 2-2h6.321a2 2 0 0 1 2 2v6.32a2 2 0 0 1 -2 2zm-6.321-8.32v6.32h6.321v-6.32z"/><path d="m32.276 39.92h-6.321a2 2 0 0 1 -2-2v-6.32a2 2 0 0 1 2-2h6.321a2 2 0 0 1 2 2v6.32a2 2 0 0 1 -2 2zm-6.321-8.32v6.32h6.321v-6.32z"/><path d="m63.812 52.92h-6.321a2 2 0 0 1 -2-2v-6.32a2 2 0 0 1 2-2h6.321a2 2 0 0 1 2 2v6.32a2 2 0 0 1 -2 2zm-6.321-8.32v6.32h6.321v-6.32z"/><path d="m16.509 52.92h-6.322a2 2 0 0 1 -2-2v-6.32a2 2 0 0 1 2-2h6.322a2 2 0 0 1 2 2v6.32a2 2 0 0 1 -2 2zm-6.322-8.32v6.32h6.322v-6.32z"/><path d="m48.044 65.92h-6.321a2 2 0 0 1 -2-2v-6.32a2 2 0 0 1 2-2h6.321a2 2 0 0 1 2 2v6.32a2 2 0 0 1 -2 2zm-6.321-8.32v6.32h6.321v-6.32z"/><path d="m32.276 65.92h-6.321a2 2 0 0 1 -2-2v-6.32a2 2 0 0 1 2-2h6.321a2 2 0 0 1 2 2v6.32a2 2 0 0 1 -2 2zm-6.321-8.32v6.32h6.321v-6.32z"/><path d="m16.509 65.92h-6.322a2 2 0 0 1 -2-2v-6.32a2 2 0 0 1 2-2h6.322a2 2 0 0 1 2 2v6.32a2 2 0 0 1 -2 2zm-6.322-8.32v6.32h6.322v-6.32z"/><path d="m43.59 51.018a1 1 0 0 1 -.707-.293l-1.931-1.925a1 1 0 0 1 1.414-1.414l1.224 1.214 3.81-3.811a1 1 0 0 1 1.414 1.414l-4.514 4.522a1 1 0 0 1 -.71.293z"/><path d="m27.821 51.018a1 1 0 0 1 -.707-.293l-1.929-1.925a1 1 0 0 1 1.415-1.419l1.221 1.219 3.812-3.811a1 1 0 0 1 1.414 1.414l-4.519 4.518a1 1 0 0 1 -.707.297z"/></svg>