<svg id="Icons" height="512" viewBox="0 0 74 74" width="512" xmlns="http://www.w3.org/2000/svg"><path d="m71 26.553h-68a1 1 0 0 1 -.92-1.392l7.428-17.424a1 1 0 0 1 .92-.608h53.144a1 1 0 0 1 .92.608l7.428 17.424a1 1 0 0 1 -.92 1.392zm-66.487-2h64.974l-6.576-15.424h-51.822z"/><path d="m54 26.553h-34a1 1 0 0 1 -.957-1.29l5.277-17.424a1 1 0 0 1 .957-.71h23.446a1 1 0 0 1 .957.71l5.277 17.424a1 1 0 0 1 -.957 1.29zm-32.652-2h31.3l-4.668-15.424h-21.96z"/><path d="m59.31 40.41a1 1 0 0 1 -.765-1.644l1.92-2.28a1 1 0 0 1 1.535 1.288l-1.92 2.28a1 1 0 0 1 -.77.356z"/><path d="m37 66.87a1 1 0 0 1 -.765-.355l-34-40.321a1 1 0 0 1 .765-1.644h68a1 1 0 0 1 .764 1.645l-5.24 6.21a1 1 0 1 1 -1.524-1.29l3.852-4.565h-63.701l31.849 37.769 10.616-12.584a1 1 0 0 1 1.528 1.29l-11.38 13.49a1 1 0 0 1 -.764.355z"/><path d="m52.91 48.01a1 1 0 0 1 -.766-1.643l1.87-2.23a1 1 0 0 1 1.532 1.285l-1.87 2.23a1 1 0 0 1 -.766.358z"/><path d="m37 66.871a1 1 0 0 1 -.921-.612l-17-40.317a1 1 0 0 1 .921-1.389h34a1 1 0 0 1 .921 1.389l-17 40.317a1 1 0 0 1 -.921.612zm-15.493-40.318 15.493 36.747 15.493-36.747z"/></svg>