<svg id="Icons" height="512" viewBox="0 0 74 74" width="512" xmlns="http://www.w3.org/2000/svg"><path d="m59.651 53.72a1 1 0 0 1 -.522-1.854c.884-.538 1.662-1.049 2.381-1.56a1 1 0 0 1 1.16 1.629c-.757.54-1.575 1.076-2.5 1.639a.993.993 0 0 1 -.519.146z"/><path d="m37 60.14c-13.138 0-25.479-5.8-34.751-16.339a1 1 0 0 1 0-1.322c9.282-10.536 21.623-16.339 34.751-16.339s25.469 5.8 34.75 16.339a1 1 0 0 1 0 1.321c-1.093 1.245-2.246 2.439-3.426 3.549a1 1 0 0 1 -1.37-1.457c.924-.869 1.83-1.791 2.7-2.751-8.825-9.681-20.389-15-32.658-15s-23.833 5.32-32.658 15c8.816 9.68 20.38 15 32.658 15a41.851 41.851 0 0 0 16.019-3.195 1 1 0 0 1 .762 1.85 43.841 43.841 0 0 1 -16.777 3.344z"/><path d="m37 60.139a16.994 16.994 0 1 1 17-16.994 17.013 17.013 0 0 1 -17 16.994zm0-31.988a14.994 14.994 0 1 0 15 14.994 15.011 15.011 0 0 0 -15-14.994z"/><path d="m37 44.145a4.788 4.788 0 1 1 4.788-4.788 1 1 0 0 1 -2 0 2.788 2.788 0 1 0 -2.788 2.788 1 1 0 0 1 0 2z"/><path d="m37 51.72a4.793 4.793 0 0 1 -4.788-4.787 1 1 0 0 1 2 0 2.788 2.788 0 1 0 2.788-2.788 1 1 0 0 1 0-2 4.788 4.788 0 1 1 0 9.575z"/><path d="m37 53.272a1 1 0 0 1 -1-1v-18.255a1 1 0 0 1 2 0v18.255a1 1 0 0 1 -1 1z"/><path d="m37 22a1 1 0 0 1 -1-1v-7.149a1 1 0 1 1 2 0v7.149a1 1 0 0 1 -1 1z"/><path d="m45.916 22.812a1 1 0 0 1 -.909-1.417l3.084-6.73a1 1 0 1 1 1.818.833l-3.083 6.73a1 1 0 0 1 -.91.584z"/><path d="m28.084 22.812a1 1 0 0 1 -.91-.584l-3.083-6.728a1 1 0 1 1 1.818-.833l3.084 6.73a1 1 0 0 1 -.909 1.417z"/></svg>