<svg xmlns="http://www.w3.org/2000/svg" xmlns:xlink="http://www.w3.org/1999/xlink" viewBox="0 0 329.052 57.093"><defs><clipPath id="a" transform="translate(-18.148 -14.862)"><rect width="365.346" height="86.818" style="fill:none"/></clipPath></defs><g style="clip-path:url(#a)"><path d="M55.682,65.549a1.762,1.762,0,0,1,.079.46,2.344,2.344,0,0,1-.041.54,1.007,1.007,0,0,1-.226.479.72.72,0,0,1-.462.241,1.747,1.747,0,0,1-.342.08q-3.064.4-6.8.921-6.351.878-11.619,1.6-7.053.962-11.108,1.481-2.4.321-3.675.44a12.357,12.357,0,0,1-1.922.159,1.408,1.408,0,0,1-.978-.7,2.1,2.1,0,0,1-.439-1.3,1.173,1.173,0,0,1,.8-1c.086-.027.222-.06.407-.1a2.243,2.243,0,0,1,.355-.06,1.89,1.89,0,0,0,.4-.16.235.235,0,0,0,.085-.019.193.193,0,0,1,.086-.022c.4-.213.651-.347.745-.4a13.484,13.484,0,0,0,1.673-1.2,8.894,8.894,0,0,0,.869-.719.679.679,0,0,0,.122-.161.15.15,0,0,1,.091-.04.164.164,0,0,0,.06-.081,3.983,3.983,0,0,1,.425-.4q.87-.881,1.8-2,1.743-2.081,3.716-4.88a141.512,141.512,0,0,0,7.529-12.4q3.36-6.12,6.665-13.081,2.9-6.2,4.943-11.239.938-2.36,1.5-4.04c.2-.561.352-1.04.457-1.441.014-.052.035-.133.063-.24s.048-.185.063-.24l.01-.039.011-.04-.021.079c.027-.1.045-.173.052-.2a1.079,1.079,0,0,1,.455-.82.848.848,0,0,1,.855-.06,1.91,1.91,0,0,1,.581.46,2.085,2.085,0,0,1,.4.7,1.594,1.594,0,0,1,.081.759,6.667,6.667,0,0,1-.169.8,9.785,9.785,0,0,0-.33,1.259,8,8,0,0,1-.391,1.261c-.241.667-.39,1.086-.45,1.259s-.22.588-.484,1.24-.434,1.068-.505,1.241-.247.586-.524,1.24-.453,1.059-.521,1.22q-2.849,6.759-6.517,14.039-4.353,8.682-8.411,15.321a73.63,73.63,0,0,1-8.56,11.76q-.335.359-.647.641,5.5-.683,16.456-2.2,6.429-.88,11.708-1.64a1.139,1.139,0,0,1,1,.32,2.353,2.353,0,0,1,.6.92" transform="translate(-18.148 -14.862)"/><path d="M75.612,52.07q.84-.919.831-.12a3.856,3.856,0,0,1-.61,1.72q-.327.48-1,1.279T73.16,56.77a25.135,25.135,0,0,1-2.294,2.039,32.239,32.239,0,0,1-2.657,1.9,14.059,14.059,0,0,1-2.892,1.42,8.648,8.648,0,0,1-2.882.54q-2.8,0-3.856-1.161a4.4,4.4,0,0,1-1.088-3.48,8.143,8.143,0,0,1,.164-1.239,26.827,26.827,0,0,1-5.11,4.24,6.334,6.334,0,0,1-3.663,1.159A2.715,2.715,0,0,1,46.51,60.63a4.7,4.7,0,0,1-.461-3.2q.45-2.639,3.663-6.2a27.29,27.29,0,0,1,5.114-4.559q2.67-1.8,4.288-1.561a3.734,3.734,0,0,1,2.9,2.2c.155-.185.29-.346.406-.479a1.224,1.224,0,0,1,1.27-.421,1.653,1.653,0,0,1,.9.981,1.757,1.757,0,0,1,.084,1.36q-.114.279-.96,1.68-.991,1.64-1.592,2.72-.215.359-.45.8a.793.793,0,0,0-.092.2c-.069.161-.131.294-.185.4-.288.586-.536,1.133-.749,1.64q-.339.84-.579,1.6l-.1.4-.01.039-.011.04a.465.465,0,0,1-.018.22,1.674,1.674,0,0,0-.048.261,1.48,1.48,0,0,0,0,.24l0,.159-.021.081a.757.757,0,0,1,0,.14c0,.013.008.019.035.019l-.01.04-.011.04h.04l-.01.04c.025,0,.022.015-.011.041h.039l.011-.041a1.193,1.193,0,0,1,.179.081h.08q.419.079.728.12a10.231,10.231,0,0,0,2.383-.241,21.022,21.022,0,0,0,8.75-4.239,33.58,33.58,0,0,0,2.769-2.32l.01-.041.127-.1a.234.234,0,0,0,.085-.1l.325-.321a1.565,1.565,0,0,0,.233-.279M48.237,59.149h0Zm7.092-4.319q2.1-2.081,4.65-5.08a1.984,1.984,0,0,1-.008-1.04.4.4,0,0,0,.063-.241c-.026,0-.036-.012-.029-.039s.013-.054.02-.081l-.277-.159a2.6,2.6,0,0,0-.448-.121h-.2a3.053,3.053,0,0,0-.732.2,3.29,3.29,0,0,0-.774.361,10.339,10.339,0,0,0-.948.559,24.589,24.589,0,0,0-4.453,3.721,28.544,28.544,0,0,0-2.338,2.739,9.137,9.137,0,0,0-1.376,2.58,4.129,4.129,0,0,0-.106.561,1.9,1.9,0,0,1-.044.32l.019.079c.027,0,.084.008.174.02a1.508,1.508,0,0,0,.176.021h.04a.905.905,0,0,1,.2-.06.952.952,0,0,1,.185-.021q.3-.08.744-.239a.829.829,0,0,0,.17-.04l.051-.04c.119-.054.226-.107.321-.16a18.151,18.151,0,0,0,1.622-1,27.051,27.051,0,0,0,3.3-2.84m4.593,4.76-.01.04.01-.04.01-.04h0c-.026,0-.035-.014-.028-.041h-.04c-.007.027.011.054.058.081m.031-.121h-.079l.021-.08.061-.08a.622.622,0,0,0,0,.16m-.01.04-.029-.04Zm.091-11.04.011-.039-.03-.041a.089.089,0,0,0,.019.08m-.019-.08.01-.04Zm.04,0,.01-.04-.01.04-.01.041Zm4.393.641-.061.079h-.04l-.021.08c.094-.053.135-.1.122-.159" transform="translate(-18.148 -14.862)"/><path d="M123.282,65.549a1.762,1.762,0,0,1,.079.46,2.344,2.344,0,0,1-.041.54,1.007,1.007,0,0,1-.226.479.72.72,0,0,1-.462.241,1.747,1.747,0,0,1-.342.08q-3.065.4-6.8.921-6.351.878-11.619,1.6-7.053.962-11.108,1.481-2.4.321-3.675.44a12.357,12.357,0,0,1-1.922.159,1.408,1.408,0,0,1-.978-.7,2.1,2.1,0,0,1-.439-1.3,1.173,1.173,0,0,1,.8-1c.086-.027.222-.06.407-.1a2.243,2.243,0,0,1,.355-.06,1.89,1.89,0,0,0,.4-.16.235.235,0,0,0,.085-.019.193.193,0,0,1,.086-.022c.4-.213.651-.347.745-.4a13.484,13.484,0,0,0,1.673-1.2,8.894,8.894,0,0,0,.869-.719.679.679,0,0,0,.122-.161.15.15,0,0,1,.091-.04.164.164,0,0,0,.06-.081,3.983,3.983,0,0,1,.425-.4q.87-.881,1.805-2,1.743-2.081,3.716-4.88a141.512,141.512,0,0,0,7.529-12.4q3.36-6.12,6.665-13.081,2.9-6.2,4.943-11.239.938-2.36,1.5-4.04c.2-.561.352-1.04.457-1.441.014-.052.035-.133.063-.24s.048-.185.063-.24l.01-.039.011-.04-.021.079c.027-.1.045-.173.052-.2a1.079,1.079,0,0,1,.455-.82.848.848,0,0,1,.855-.06,1.91,1.91,0,0,1,.581.46,2.085,2.085,0,0,1,.4.7,1.594,1.594,0,0,1,.081.759,6.667,6.667,0,0,1-.169.8,9.785,9.785,0,0,0-.33,1.259,8,8,0,0,1-.391,1.261c-.241.667-.39,1.086-.45,1.259s-.22.588-.484,1.24-.434,1.068-.505,1.241-.247.586-.524,1.24-.453,1.059-.521,1.22q-2.849,6.759-6.517,14.039-4.353,8.682-8.411,15.321a73.63,73.63,0,0,1-8.56,11.76q-.335.359-.647.641,5.5-.683,16.456-2.2,6.429-.88,11.708-1.64a1.139,1.139,0,0,1,1,.32,2.353,2.353,0,0,1,.6.92" transform="translate(-18.148 -14.862)"/><path d="M143.784,51.71q.537-.521.679.16a1.8,1.8,0,0,1-.273,1.2,11.181,11.181,0,0,1-.891,1.261,33.788,33.788,0,0,1-2.291,2.559,34.971,34.971,0,0,1-3.31,3.02,16.828,16.828,0,0,1-4.1,2.381,10.749,10.749,0,0,1-4.535.9,3.519,3.519,0,0,1-2.294-.94,4.29,4.29,0,0,1-1.236-2.079,6.5,6.5,0,0,1-.114-2.62.275.275,0,0,1-.008-.12,26.7,26.7,0,0,1-4.46,4.2,7.738,7.738,0,0,1-3.589,1.639,3.434,3.434,0,0,1-2.15-.5,3.053,3.053,0,0,1-1.244-1.659,4.088,4.088,0,0,1-.2-1.62,7.829,7.829,0,0,1,.279-1.68,12.81,12.81,0,0,1,.723-1.84q.5-1.061.819-1.68t.955-1.66q.806-1.4,2.436-3.88t2.048-3.16a.712.712,0,0,1,.343-.32.677.677,0,0,1,.391-.041,2.649,2.649,0,0,1,.389.12,1.056,1.056,0,0,1,.327.2c.086.08.162.146.228.2a1.681,1.681,0,0,1,.284,2.12q-.325.48-2.153,3.26t-2.666,4.3q-.552,1.041-.973,1.879a14.155,14.155,0,0,0-.782,1.921c-.042.159-.084.32-.126.48-.007.026-.028.106-.062.24a1.547,1.547,0,0,0-.044.32h.3c.012,0,.061-.007.144-.021a1.453,1.453,0,0,1,.166-.02c.113-.026.24-.052.381-.08a1.872,1.872,0,0,0,.351-.12.537.537,0,0,0,.181-.079h.04a14.4,14.4,0,0,0,3.348-2.4,53.922,53.922,0,0,0,6.317-7.321q1.747-2.4,2.921-4.28a.736.736,0,0,1,.6-.319,1.253,1.253,0,0,1,.637.16,1.969,1.969,0,0,1,.465.359,1.64,1.64,0,0,1,.246,2.12q-.326.482-.775,1.281-.379.68-.756,1.36c-.056.106-.114.227-.175.36a1.929,1.929,0,0,0-.132.2l-.01.04c-.171.346-.316.639-.431.879a27.044,27.044,0,0,0-1.451,3.4,16.036,16.036,0,0,0-.58,1.761c-.007.027-.025.093-.052.2l-.032.12a1.872,1.872,0,0,0-.023.239c-.045.268-.083.521-.12.761-.007.026-.015.16-.024.4l-.011.04a.726.726,0,0,1,.068.2.511.511,0,0,1,.017.24l-.021.08.03.04-.01.039c.019.027.039.054.059.08h.08a.191.191,0,0,0,.124.061.217.217,0,0,1,.125.059h.12a5.028,5.028,0,0,0,1.889-.039q4.049-.64,9.3-4.64,1.644-1.24,3.222-2.681.212-.2.536-.52c.033-.026.067-.052.1-.08l-.05.041.05-.041a.325.325,0,0,0,.112-.12,3.323,3.323,0,0,0,.322-.319m-27.9,8.48-.01.039Zm.03.039a.6.6,0,0,1,.15.041c.006-.026-.043-.041-.15-.041m11.884-.32.01-.039a.265.265,0,0,0-.009-.12.317.317,0,0,1,0,.159" transform="translate(-18.148 -14.862)"/><path d="M168.855,51.75q.506-.559.678.159a1.567,1.567,0,0,1-.06.84,8.307,8.307,0,0,1-1.1,1.68,26.2,26.2,0,0,1-2.3,2.52,36,36,0,0,1-3.037,2.661,18.827,18.827,0,0,1-3.551,2.179,11,11,0,0,1-3.662,1.081,3.233,3.233,0,0,1-3.293-1.481,4.845,4.845,0,0,1-.541-3.28,14.567,14.567,0,0,1,.315-1.74q.227-.939.419-1.6t.562-1.761q.366-1.1.544-1.62c-.289.188-.6.395-.922.62s-.609.441-.849.641-.531.453-.879.76-.607.54-.783.7-.459.428-.849.8-.654.613-.789.719q-.537.521-1.861,1.76t-2.325,2.16q-1,.921-1.961,1.681a6.492,6.492,0,0,1-2.1,1.319,1.348,1.348,0,0,1-1.642-.679,2.21,2.21,0,0,1-.176-2,19.621,19.621,0,0,1,1.491-2.64q.083-.16,2.4-3.8,1.632-2.559,2.559-4.12a27.923,27.923,0,0,0,1.66-3.28.889.889,0,0,1,.742-.619,1.055,1.055,0,0,1,.843.219,3.314,3.314,0,0,1,.473.56,1.861,1.861,0,0,1,.285.74,1.377,1.377,0,0,1-.114.821,28.177,28.177,0,0,1-1.691,3.4q-.949,1.641-2.437,3.96,2.6-2.44,3.327-3.081a33.938,33.938,0,0,1,4.514-3.64,4.84,4.84,0,0,1,1.7-.68q1.493-.2,2.083,1.52a4.118,4.118,0,0,1,.034,2.16,11.791,11.791,0,0,1-.677,2.28c-.022.081-.135.44-.343,1.08s-.367,1.121-.478,1.441q-.208.8-.367,1.4c-.013.054-.038.147-.073.281-.027.106-.049.186-.062.239l-.01.04-.011.041-.032.119c-.021.08-.034.134-.041.16a7.576,7.576,0,0,0-.114,1.2c-.007.028-.015.054-.022.081s0,.039.03.039l-.021.081q2.7.239,6.583-1.92a33.138,33.138,0,0,0,5.719-4.12q.515-.441.991-.88c.032-.028.14-.134.323-.321a3.425,3.425,0,0,1,.263-.24c.257-.266.472-.48.648-.639m-29.163,7.8a.408.408,0,0,0-.131.04l.091-.04Zm14.406.281h0Zm.08,0,.03.04.01-.04Zm.129.12.03.039Zm.1.24a.454.454,0,0,0-.067-.2l.029.04-.011.041c.039.054.056.093.049.12" transform="translate(-18.148 -14.862)"/><path d="M194.971,52.07q.84-.919.831-.12a3.856,3.856,0,0,1-.61,1.72q-.327.48-1,1.279t-1.678,1.821a25.135,25.135,0,0,1-2.294,2.039,32.239,32.239,0,0,1-2.657,1.9,14.059,14.059,0,0,1-2.892,1.42,8.648,8.648,0,0,1-2.882.54q-2.8,0-3.856-1.161a4.4,4.4,0,0,1-1.088-3.48,8.143,8.143,0,0,1,.164-1.239,26.827,26.827,0,0,1-5.11,4.24,6.334,6.334,0,0,1-3.663,1.159,2.715,2.715,0,0,1-2.372-1.559,4.7,4.7,0,0,1-.461-3.2q.45-2.639,3.663-6.2a27.29,27.29,0,0,1,5.114-4.559q2.67-1.8,4.288-1.561a3.734,3.734,0,0,1,2.9,2.2c.155-.185.29-.346.406-.479a1.224,1.224,0,0,1,1.27-.421,1.653,1.653,0,0,1,.9.981,1.757,1.757,0,0,1,.084,1.36q-.114.279-.96,1.68-.992,1.64-1.592,2.72-.214.359-.45.8a.793.793,0,0,0-.092.2c-.069.161-.131.294-.185.4-.288.586-.536,1.133-.749,1.64q-.339.84-.579,1.6l-.1.4-.01.039-.011.04a.465.465,0,0,1-.018.22,1.674,1.674,0,0,0-.048.261,1.48,1.48,0,0,0,0,.24l0,.159-.021.081a.757.757,0,0,1,0,.14c0,.013.008.019.035.019l-.01.04-.011.04h.04l-.01.04c.025,0,.022.015-.011.041h.039l.011-.041a1.193,1.193,0,0,1,.179.081h.08q.418.079.728.12a10.231,10.231,0,0,0,2.383-.241,21.022,21.022,0,0,0,8.75-4.239,33.58,33.58,0,0,0,2.769-2.32l.01-.041.127-.1a.234.234,0,0,0,.085-.1l.325-.321a1.565,1.565,0,0,0,.233-.279M167.6,59.149h0Zm7.092-4.319q2.1-2.081,4.65-5.08a1.984,1.984,0,0,1-.008-1.04.4.4,0,0,0,.063-.241c-.026,0-.036-.012-.029-.039s.013-.054.02-.081l-.277-.159a2.6,2.6,0,0,0-.448-.121h-.2a3.053,3.053,0,0,0-.732.2,3.29,3.29,0,0,0-.774.361,10.339,10.339,0,0,0-.948.559,24.589,24.589,0,0,0-4.453,3.721,28.544,28.544,0,0,0-2.338,2.739,9.137,9.137,0,0,0-1.376,2.58,4.129,4.129,0,0,0-.106.561,1.9,1.9,0,0,1-.044.32l.019.079c.027,0,.084.008.174.02a1.508,1.508,0,0,0,.176.021h.04a.905.905,0,0,1,.195-.06.952.952,0,0,1,.185-.021q.3-.08.744-.239a.829.829,0,0,0,.17-.04l.051-.04c.119-.054.226-.107.321-.16a18.151,18.151,0,0,0,1.622-1,27.051,27.051,0,0,0,3.3-2.84m4.593,4.76-.01.04.01-.04.01-.04h0c-.026,0-.035-.014-.028-.041h-.04c-.007.027.011.054.058.081m.031-.121h-.079l.021-.08.061-.08a.622.622,0,0,0,0,.16m-.01.04-.029-.04Zm.091-11.04.011-.039-.03-.041a.089.089,0,0,0,.019.08m-.019-.08.01-.04Zm.04,0,.01-.04-.01.04-.01.041Zm4.393.641-.061.079h-.04l-.021.08c.094-.053.135-.1.122-.159" transform="translate(-18.148 -14.862)"/><path d="M256.574,22.268a17.741,17.741,0,0,1-2.122,5.66,29.441,29.441,0,0,1-3.99,5.46,21.666,21.666,0,0,1-1.645,1.7,21.918,21.918,0,0,1-1.909,1.559,14.091,14.091,0,0,1-2.074,1.28,8.448,8.448,0,0,1-2.129.72,4.975,4.975,0,0,1-2.134-.019,1.7,1.7,0,0,1-1.068-.661,2.553,2.553,0,0,1-.52-1.219,1.5,1.5,0,0,1,.248-1.1.868.868,0,0,1,.97-.5,1.8,1.8,0,0,0,.539.08h.321a5.909,5.909,0,0,0,1-.159c.2-.054.387-.106.562-.161a.32.32,0,0,1,.135-.059.336.336,0,0,0,.136-.06h.04a9.821,9.821,0,0,0,1.156-.6,17.033,17.033,0,0,0,2.381-1.76c.176-.159.385-.345.628-.56l.111-.119a3.456,3.456,0,0,1,.263-.241c.363-.373.736-.772,1.114-1.2a29.1,29.1,0,0,0,2.051-2.639q.834-1.2,1.663-2.68c.006-.026.014-.054.02-.08a.158.158,0,0,0,.06-.08,2.743,2.743,0,0,0,.164-.32,6.672,6.672,0,0,0,.288-.64q.3-.681.546-1.32c.131-.4.256-.827.375-1.281a.868.868,0,0,0,.033-.2.45.45,0,0,1,.011-.119,4.1,4.1,0,0,0,.106-.561.217.217,0,0,1-.022-.139c0-.067.005-.126.007-.18a.691.691,0,0,1,.021-.161.41.41,0,0,0-.027-.2l.012-.2a.413.413,0,0,1-.078-.159l-.029-.041a.282.282,0,0,1-.1-.079.317.317,0,0,1-.1-.08,1.051,1.051,0,0,1-.3-.081l-.069-.039a.6.6,0,0,1-.155-.02.785.785,0,0,0-.194-.021,5.279,5.279,0,0,0-.631-.039h-.4a21.946,21.946,0,0,0-6.381,1.76,2.385,2.385,0,0,0-.362.16c-.121.053-.255.107-.4.16q-.413.2-.875.44-.956.439-1.891.959-1.923,1.082-3.768,2.321a42.469,42.469,0,0,0-6.8,5.52,30.152,30.152,0,0,0-2.78,3.28,20.141,20.141,0,0,0-1.119,1.679q-.491.8-.839,1.521a14.56,14.56,0,0,0-.65,1.72,5.393,5.393,0,0,0-.231.879l-.031.12a1.941,1.941,0,0,0-.075.441,9.167,9.167,0,0,0-.121.92.115.115,0,0,1,.014.1.529.529,0,0,0-.016.14.527.527,0,0,1-.013.12l.031.039c.015.347.036.628.06.84a1.664,1.664,0,0,0,.055.4l0,.161a.862.862,0,0,1,.086.279,1.467,1.467,0,0,0,.116.32,3.682,3.682,0,0,0,.212.72c.026,0,.059.054.1.161s.064.187.078.239c.1.215.217.441.341.681.228.454.493.919.793,1.4.151.24.314.48.492.721a2,2,0,0,0,.2.319l.03.04c-.008.026,0,.04.029.04q.283.441.994,1.4t1.1,1.52q.394.561.934,1.4t.991,1.56a16.168,16.168,0,0,1,2.428,6.92,10.388,10.388,0,0,1-1.448,6.6,8.749,8.749,0,0,1-2.63,2.481,12.675,12.675,0,0,1-3.273,1.5,21.151,21.151,0,0,1-3.352.66,18.361,18.361,0,0,1-11.187-2.04,11.7,11.7,0,0,1-2.259-1.681,10.318,10.318,0,0,1-1.735-2.159,7.9,7.9,0,0,1-1-2.68,8.383,8.383,0,0,1,.026-3.08,1.51,1.51,0,0,1,.557-.98.975.975,0,0,1,1-.06,1.914,1.914,0,0,1,.983.9,2.077,2.077,0,0,1,.27,1.339,10.607,10.607,0,0,0-.165,1.241.61.61,0,0,1,.017.159.192.192,0,0,0,.03.12c0,.08.026.253.063.52a.264.264,0,0,0,.009.12.316.316,0,0,0,.049.12,1.026,1.026,0,0,1,.088.2,1.2,1.2,0,0,1,.066.28c.038.053.078.106.118.161a2.266,2.266,0,0,0,.215.4h.04a.481.481,0,0,0,.148.2,5.28,5.28,0,0,0,.365.441.331.331,0,0,0,.1.079c-.006.026.012.053.059.08l.029.04.03.04-.03-.04a2.627,2.627,0,0,0,.466.36,3.123,3.123,0,0,0,.5.36c.066.053.133.106.2.16a.52.52,0,0,1,.18.081.305.305,0,0,0,.14.079c.091.054.184.106.276.16a5.416,5.416,0,0,0,.567.28,7.953,7.953,0,0,0,1.235.48c.219.08.438.161.657.24l.15.04a.085.085,0,0,1,.069.04h.16a19.8,19.8,0,0,0,5.523.6l.25-.039h.321l.74-.081a12.313,12.313,0,0,0,1.384-.24,14.332,14.332,0,0,0,2.549-.719q.089-.042.18-.081a2.136,2.136,0,0,0,.221-.081,6.117,6.117,0,0,1,.554-.279,7.5,7.5,0,0,0,1.046-.64c.2-.161.492-.4.869-.72l.1-.08a1.318,1.318,0,0,1,.172-.2c.115-.133.231-.266.346-.4a4.254,4.254,0,0,0,.336-.52.4.4,0,0,1,.071-.121.432.432,0,0,0,.072-.12,8.8,8.8,0,0,0,.4-1.079l.042-.16c.013-.054.024-.094.031-.12s.015-.054.021-.08.025-.148.054-.359c.051-.294.087-.587.111-.881.015-.16.027-.306.036-.44a.338.338,0,0,0,0-.1c0-.041,0-.081-.008-.121a.336.336,0,0,1,.006-.1.276.276,0,0,0-.008-.12l-.009-.119a3.286,3.286,0,0,0-.005-.441q-.054-.4-.14-.84a.165.165,0,0,0-.014-.1.162.162,0,0,1-.014-.1l.038.16a2.049,2.049,0,0,0-.124-.44q-.182-.68-.512-1.56c-.019-.026-.035-.046-.044-.06a.07.07,0,0,1,0-.06,2.269,2.269,0,0,0-.2-.32,4.614,4.614,0,0,0-.372-.72q-.372-.719-.851-1.48a3.9,3.9,0,0,0-.493-.72c.007-.026-.019-.08-.079-.159l-.057-.081c-.059-.08-.1-.133-.118-.16q-.345-.519-1-1.4l-2.182-3.12a17.689,17.689,0,0,1-2.743-6.48,12.518,12.518,0,0,1,1.177-7.4q3.141-6.8,11.873-12.8a45.311,45.311,0,0,1,7.6-4.279,24.776,24.776,0,0,1,6.785-2.08q3.505-.4,5.172,1.48a6.126,6.126,0,0,1,1.108,5.239M211.743,65.309c-.019-.027-.049-.067-.088-.12.02.026.048.067.088.12m16.46-17.64-.089-.12.089.12m25.14-28.64.029.039Z" transform="translate(-18.148 -14.862)"/><path d="M266.059,41.229a1.117,1.117,0,0,1-.474.82.714.714,0,0,1-.835.059q-.538-.238-1.195-.479a.235.235,0,0,1-.11-.04h-.119a.785.785,0,0,0-.3-.08l-.677-.16a20.43,20.43,0,0,0-3.3-.24c-2.5-.027-1.34.227-4.519.759-4.312,6.482-4.6,6.188-6.885,11.121q-1.281,2.762-2.089,5.081-.406,1.239-.687,2.32l-.168.64c-.007.026-.015.053-.022.08-.028.105-.045.173-.052.2-.064.347-.112.68-.142,1a6.917,6.917,0,0,0-.112,1.04c-.015.16-.028.307-.035.441a.629.629,0,0,0,0,.16,8.037,8.037,0,0,1,.05.879.2.2,0,0,1,.034.1.328.328,0,0,0,.028.12.171.171,0,0,1,.013.1.28.28,0,0,1,.009.12.794.794,0,0,1,.022-.08.082.082,0,0,0,.019.08c.011.053.056.187.134.4a2.868,2.868,0,0,0,.146.361h.041a1.135,1.135,0,0,0,.235.319,2.843,2.843,0,0,0,.606.441,1.651,1.651,0,0,1,.659.92,1.813,1.813,0,0,1,.035,1.16.845.845,0,0,1-.737.6,1.251,1.251,0,0,1-.848-.2,5.512,5.512,0,0,1-2.454-3.38,11.546,11.546,0,0,1-.2-4.94,40.153,40.153,0,0,1,3.489-10.119c1.559-3.307.556-.96,2.989-4.96q.919-1.521,2-3.2c-.482.106-.937.214-1.364.32-4.627,1.067-5.243,1.148-7.849,2.241a.823.823,0,0,1-1-.24,2.409,2.409,0,0,1-.6-1c-.258-.853-.039-1.426.651-1.72a8.425,8.425,0,0,1,2.31-.8,96,96,0,0,1,10.2-2.441q2.147-3.157,4.689-6.758.631-.881,1.5.019a1.937,1.937,0,0,1,.6,1.9,1.008,1.008,0,0,1-.176.36l-2.747,3.92q2.516-.281,4.341-.38c1.216-.067-1.431-.014.058.16A10.965,10.965,0,0,1,265,39.31a1.756,1.756,0,0,1,.836.779,1.815,1.815,0,0,1,.22,1.14M244.5,65.189c.006-.026,0-.04-.031-.04Z" transform="translate(-18.148 -14.862)"/><path d="M281.983,51.71q.537-.521.679.16a1.8,1.8,0,0,1-.273,1.2,11.181,11.181,0,0,1-.891,1.261,33.788,33.788,0,0,1-2.291,2.559,35.1,35.1,0,0,1-3.311,3.02,16.8,16.8,0,0,1-4.1,2.381,10.752,10.752,0,0,1-4.535.9,3.519,3.519,0,0,1-2.294-.94,4.29,4.29,0,0,1-1.236-2.079,6.486,6.486,0,0,1-.114-2.62.279.279,0,0,1-.009-.12,26.7,26.7,0,0,1-4.459,4.2,7.738,7.738,0,0,1-3.589,1.639,3.434,3.434,0,0,1-2.15-.5,3.055,3.055,0,0,1-1.245-1.659,4.107,4.107,0,0,1-.195-1.62,7.829,7.829,0,0,1,.279-1.68,12.81,12.81,0,0,1,.723-1.84q.5-1.061.819-1.68t.955-1.66q.805-1.4,2.436-3.88t2.047-3.16a.718.718,0,0,1,.344-.32.677.677,0,0,1,.391-.041,2.649,2.649,0,0,1,.389.12,1.056,1.056,0,0,1,.327.2c.085.08.162.146.227.2a1.681,1.681,0,0,1,.285,2.12q-.326.48-2.153,3.26t-2.666,4.3q-.552,1.041-.974,1.879a14.136,14.136,0,0,0-.781,1.921l-.126.48-.063.24a1.63,1.63,0,0,0-.043.32h.3c.012,0,.061-.007.144-.021a1.47,1.47,0,0,1,.165-.02c.113-.026.241-.052.382-.08a1.872,1.872,0,0,0,.351-.12.537.537,0,0,0,.181-.079h.039a14.383,14.383,0,0,0,3.349-2.4,53.922,53.922,0,0,0,6.317-7.321q1.748-2.4,2.921-4.28a.736.736,0,0,1,.605-.319,1.256,1.256,0,0,1,.637.16,1.969,1.969,0,0,1,.465.359,1.64,1.64,0,0,1,.246,2.12c-.218.321-.475.747-.776,1.281l-.755,1.36c-.056.106-.114.227-.175.36a1.929,1.929,0,0,0-.132.2l-.01.04c-.171.346-.316.639-.431.879a27.044,27.044,0,0,0-1.451,3.4,16.036,16.036,0,0,0-.58,1.761c-.007.027-.025.093-.052.2l-.032.12a1.872,1.872,0,0,0-.023.239c-.045.268-.084.521-.12.761-.007.026-.015.16-.024.4l-.011.04a.7.7,0,0,1,.067.2.514.514,0,0,1,.018.24l-.021.08.03.04-.011.039.06.08h.08a.189.189,0,0,0,.124.061.217.217,0,0,1,.125.059h.12a5.028,5.028,0,0,0,1.889-.039q4.047-.64,9.3-4.64,1.644-1.24,3.222-2.681.212-.2.536-.52c.033-.026.067-.052.1-.08l-.051.041.051-.041a.32.32,0,0,0,.111-.12,3.257,3.257,0,0,0,.323-.319m-27.9,8.48-.011.039Zm.03.039a.609.609,0,0,1,.15.041c.006-.026-.044-.041-.15-.041M266,59.909l.011-.039a.265.265,0,0,0-.009-.12.317.317,0,0,1,0,.159" transform="translate(-18.148 -14.862)"/><path d="M308.483,51.79q.627-.561.517.32a3.673,3.673,0,0,1-.333,1.119,9.128,9.128,0,0,1-1.428,1.861,27.211,27.211,0,0,1-2.695,2.5q-1.606,1.32-3.339,2.519a20.214,20.214,0,0,1-3.559,1.981,8.21,8.21,0,0,1-3.1.78,3.524,3.524,0,0,1-3.6-2.44,7.691,7.691,0,0,1,.075-4.56l.231-.881a38.271,38.271,0,0,1-4.816,4.641q-2.917,2.279-5.066,2.24a2.644,2.644,0,0,1-2.094-.94,3.761,3.761,0,0,1-.908-2.26q-.135-2.081,1.869-5a33.152,33.152,0,0,1,4.076-4.72,17.459,17.459,0,0,1,4.2-3.04,4.327,4.327,0,0,1,4.033-.28,4.452,4.452,0,0,1,1.446,1.2q1.909-2.559,4.068-5.76,2.418-4.041,5.78-9.24.519-.76,2.647-4,1.062-1.761,1.235-1.96.821-1,1.636.16a2,2,0,0,1,.469,1.88,9.214,9.214,0,0,1-.5.84q-.4.6-.936,1.439l-.358.6q-1.681,2.758-3.048,4.919Q302.334,39.99,300,43.39q-1.429,2.4-2.6,4.6a60.971,60.971,0,0,0-2.746,5.6q-.606,1.4-.99,2.559c-.133.4-.246.788-.345,1.161-.014.053-.036.139-.067.259s-.054.207-.069.261a.56.56,0,0,0-.011.12.553.553,0,0,1-.011.12,9.4,9.4,0,0,0-.132.96.556.556,0,0,0,0,.159l-.03-.04c.026,0,.036.015.03.04s-.015.054-.021.081h.04a.721.721,0,0,0-.017.139.213.213,0,0,0,.024.141.248.248,0,0,0,.008.12.09.09,0,0,1-.019-.08.251.251,0,0,0,.009.12l.029.04-.01.039h.039l-.029-.039c.046.027.092.054.139.08a.791.791,0,0,1,.134.02.813.813,0,0,0,.135.02,7.747,7.747,0,0,0,3.256-.519,28.867,28.867,0,0,0,7.934-4.482,39.364,39.364,0,0,0,3.806-3.079m-20.467,2.239q1.167-1.238,2.443-2.758.923-1.082,1.878-2.282c.013-.052.023-.093.031-.12l.02-.079.042-.16.011-.04-.1-.08-.106-.06-.1-.06c-.121-.053-.215-.093-.289-.12l-.27-.04h-.2a1.4,1.4,0,0,0-.33.04,9.934,9.934,0,0,0-3.7,2.08,26.477,26.477,0,0,0-3.978,4.04q-1.017,1.279-1.82,2.52a7.045,7.045,0,0,0-.548,1.1,3.242,3.242,0,0,0-.215.74c-.007.026-.018.066-.031.12h.36a7.217,7.217,0,0,0,.762-.16c.059-.026.224-.093.493-.2a.2.2,0,0,0,.129-.041.689.689,0,0,0,.142-.08,11.578,11.578,0,0,0,1.026-.56,21.823,21.823,0,0,0,2.211-1.721,6.119,6.119,0,0,0,.576-.519,3.993,3.993,0,0,0,.313-.28l.112-.121.051-.039q.536-.519,1.092-1.121m5.01,5.16-.012.041Zm.053.561-.029-.04.01-.04a.094.094,0,0,1,.019.08m16.494-31.521a.049.049,0,0,0,.051-.039Z" transform="translate(-18.148 -14.862)"/><path d="M324.084,51.63q.545-.4.435.48A3.477,3.477,0,0,1,324,53.471a10.288,10.288,0,0,1-1.275,1.359q-1.012.962-2.7,2.28t-3.534,2.5a22.262,22.262,0,0,1-3.985,2,10.967,10.967,0,0,1-3.894.82,3.008,3.008,0,0,1-2.934-2.24,5.608,5.608,0,0,1,.122-3.52,30.138,30.138,0,0,1,4.027-7.28q1.486-2.162,2.9-3.88.711-.879,1.609.12a1.749,1.749,0,0,1,.508,1.88,2.162,2.162,0,0,1-.2.319q-1.533,1.883-3.151,4.241-1.24,1.84-2.13,3.4c-.063.133-.147.305-.257.519l-.061.08a.211.211,0,0,1-.071.12c-.138.32-.261.586-.37.8a10.425,10.425,0,0,0-.567,1.56.815.815,0,0,0-.1.36l-.021.08-.02.079-.022.08-.023.241a.577.577,0,0,0,.149.04,6.194,6.194,0,0,0,1.662-.079q3.566-.642,9.3-4.2,2.923-1.839,5.122-3.52M307.8,59.59l.03.04Zm7.845-16.361a2.17,2.17,0,0,1-.452-1.02,1.409,1.409,0,0,1,.208-1.1q.456-.68,1.414-2.039a.794.794,0,0,1,.608-.34.939.939,0,0,1,.618.159,6.091,6.091,0,0,1,.481.38,2.227,2.227,0,0,1,.458,1,1.452,1.452,0,0,1-.213,1.121q-.5.68-1.4,2a.741.741,0,0,1-.614.36,1.147,1.147,0,0,1-.618-.161,3.357,3.357,0,0,1-.486-.36" transform="translate(-18.148 -14.862)"/><path d="M346.315,51.509q.493-.358.759.08a.641.641,0,0,1-.03.8,14.062,14.062,0,0,1-5.944,3.76,17.333,17.333,0,0,1-7.383,1.16,5.649,5.649,0,0,1-.366.48,10.621,10.621,0,0,1-5.631,4.241,4.638,4.638,0,0,1-3.566-.361,4.1,4.1,0,0,1-2.008-2.639q-.81-3.321,1.8-7.641.54-.839,1.17-1.639a13.343,13.343,0,0,1,1.372-1.5,10.725,10.725,0,0,1,1.63-1.261,7.8,7.8,0,0,1,1.76-.84.434.434,0,0,0,.171-.039,4.462,4.462,0,0,1,2.831-.12,4,4,0,0,1,1.958,1.08,4.35,4.35,0,0,1,1.1,1.9,6.808,6.808,0,0,1,.217,2.38,10.987,10.987,0,0,1-.806,3.08l.069.04a17.581,17.581,0,0,0,7.916-1.36c.06-.025.12-.053.181-.079l.362-.161a4.672,4.672,0,0,1,.593-.28q.513-.279.987-.56.563-.318.856-.52m-17.024,6.2a7.516,7.516,0,0,0,1.041-.92c.074-.08.151-.173.234-.281a5.861,5.861,0,0,1-2.167-1.96,6.316,6.316,0,0,1-1.046-2.879,12.162,12.162,0,0,0-1.986,3,10.126,10.126,0,0,0-.658,1.6,4.239,4.239,0,0,0-.21.8l-.011.041c-.006.026-.017.066-.031.12l-.026.1a.2.2,0,0,0-.007.1.243.243,0,0,1-.011.12,1.393,1.393,0,0,0-.029.34,1.386,1.386,0,0,1-.028.34.086.086,0,0,0,.018.08.81.81,0,0,1,.007.28l.029.041a.7.7,0,0,0,.068.2.336.336,0,0,0,.048.119.086.086,0,0,1,.07.041h0l.109.04a.326.326,0,0,1,.14.08.086.086,0,0,1,.069.039h.08l.27.04a3.2,3.2,0,0,0,.549.041.489.489,0,0,0,.252-.041,1.427,1.427,0,0,0,.329-.04,2.731,2.731,0,0,0,.6-.159,3.066,3.066,0,0,1,.34-.08c.008-.027.068-.053.182-.08.214-.107.4-.2.553-.281a10.767,10.767,0,0,0,1.22-.839M324.6,58.99a.256.256,0,0,0,.109.04.127.127,0,0,0-.109-.04m7.7-10.16a3.43,3.43,0,0,0-.53.039,2.189,2.189,0,0,0-1.116.44l-.252.2-.1.08c-.129.187-.237.348-.326.481l-.011.04a1,1,0,0,0-.082.159c-.027.107-.056.215-.084.32-.006.027-.014.054-.02.081l.01-.04-.01.04-.011.04a.677.677,0,0,0-.033.279.621.621,0,0,0-.012.2l-.022.081.049.119a.532.532,0,0,0,.018.241l-.011.04.019.08.021-.08a.135.135,0,0,0,.009.12c.013.053.041.147.087.28l.049.12a.364.364,0,0,0-.049-.12.37.37,0,0,0,.062.14c.03.04.064.087.1.139a.472.472,0,0,1,.078.16.081.081,0,0,0,.069.04q.117.162.267.361a.943.943,0,0,1,.128.12c.112.079.215.146.307.2a.7.7,0,0,0,.208.121,5.977,5.977,0,0,0,1.365.6c.06-.133.118-.253.173-.361.026,0,.051-.04.072-.119l.011-.041a1.212,1.212,0,0,0,.163-.32,9.661,9.661,0,0,0,.555-1.359l.179-.681c.007-.026.014-.053.02-.08s.02-.072.038-.14.029-.113.037-.139a5.1,5.1,0,0,0,.047-.64l-.009-.12.021-.08-.019-.08a.346.346,0,0,0,0-.16.393.393,0,0,0-.048-.121.185.185,0,0,0-.038-.16c.007-.025-.01-.066-.048-.12l-.03-.04a.088.088,0,0,0-.07-.039l-.029-.041h0a.269.269,0,0,0-.11-.039.087.087,0,0,0-.07-.04.21.21,0,0,0-.124-.061.757.757,0,0,0-.135-.019.085.085,0,0,0-.07-.04,3.353,3.353,0,0,0-.7-.08m-2.544,2.84c.007-.027.02-.027.04,0Zm.022-1-.011.04Zm3.729-1.561a.269.269,0,0,0-.11-.039.246.246,0,0,0,.11.039" transform="translate(-18.148 -14.862)"/></g></svg>