<svg version="1.1" id="Object" xmlns="http://www.w3.org/2000/svg" xmlns:xlink="http://www.w3.org/1999/xlink" x="0px" y="0px" viewBox="0 0 33 33"
	 style="enable-background:new 0 0 33 33;" xml:space="preserve">
	<g>
		<path d="M14.1,31.9C10,31.2,6.4,29,3.9,25.7c-2.4-3.4-3.4-7.5-2.8-11.6C1.8,10,4,6.3,7.3,3.9c3.4-2.4,7.5-3.4,11.6-2.8
			C23,1.7,26.6,4,29.1,7.3c2,2.7,3,5.9,3,9.1c0,0.8-0.1,1.6-0.2,2.5c-0.7,4.1-2.9,7.7-6.2,10.2C22.3,31.5,18.2,32.5,14.1,31.9z
			 M24.5,27.5c2.9-2.1,4.9-5.3,5.4-8.9c0.1-0.7,0.1-1.4,0.1-2.1H2.9v0c0,2.8,0.9,5.6,2.6,8c2.1,2.9,5.3,4.9,8.9,5.4
			C18,30.5,21.6,29.6,24.5,27.5z"/>
	</g>
</svg>
