<svg version="1.1" xmlns="http://www.w3.org/2000/svg" xmlns:xlink="http://www.w3.org/1999/xlink" x="0px" y="0px" viewBox="0 0 33 33"
	 style="enable-background:new 0 0 33 33;" xml:space="preserve">
	<g>
		<path d="M14.1,1.1C10,1.7,6.4,4,3.9,7.3C3.6,7.7,3.3,8.2,3,8.7c-4,6.9-2.1,15.7,4.3,20.4c3.4,2.4,7.5,3.5,11.6,2.8
			c4.1-0.6,7.7-2.9,10.2-6.2c2-2.7,3-5.9,3-9.2c0-2.7-0.7-5.4-2.1-7.8c-1.1-1.9-2.5-3.5-4.3-4.8c-2.7-2-5.9-3-9.2-3
			C15.7,0.9,14.9,1,14.1,1.1z M27.5,24.5c-2.1,2.9-5.3,4.9-8.9,5.4c-3.6,0.6-7.2-0.3-10.1-2.4c-3.6-2.6-5.6-6.8-5.6-11
			c0-2.2,0.5-4.3,1.6-6.3c0.9,1.3,2,2.5,3.4,3.5c6.5,4.7,15.6,3.3,20.4-3.2c0.1-0.1,0.1-0.2,0.2-0.3C30.9,14.7,30.6,20.3,27.5,24.5z
			"/>
	</g>
</svg>
