<svg version="1.1" xmlns="http://www.w3.org/2000/svg" xmlns:xlink="http://www.w3.org/1999/xlink" x="0px" y="0px" viewBox="0 0 33 33"
	 style="enable-background:new 0 0 33 33;" xml:space="preserve">
	<g>
		<path d="M0.4,16.5c0-3.4,1.1-6.7,3.1-9.4C6,3.6,9.8,1.3,14,0.6c4.2-0.7,8.5,0.4,12,2.9C29.4,6,31.7,9.8,32.4,14
			c0.7,4.2-0.4,8.5-2.9,12c-2.5,3.5-6.3,5.8-10.5,6.4c-4.2,0.7-8.5-0.4-12-2.9C3.6,27,1.3,23.2,0.6,19C0.5,18.2,0.4,17.3,0.4,16.5z
			 M29.6,16.5c0-0.7-0.1-1.4-0.2-2.1C28.9,11,27,8,24.2,5.9c-2.8-2.1-6.3-2.9-9.7-2.3C11,4.1,8,6,5.9,8.8c-2.1,2.8-2.9,6.3-2.3,9.7
			C4.1,22,6,25,8.8,27.1c2.8,2.1,6.3,2.9,9.7,2.3l0,0c3.5-0.5,6.5-2.4,8.5-5.2C28.7,21.9,29.6,19.3,29.6,16.5z"/>
	</g>
</svg>
