<svg
        xmlns="http://www.w3.org/2000/svg"
        xmlns:xlink="http://www.w3.org/1999/xlink"
        width="22px" height="26px">
    <path fill-rule="evenodd"  fill="#fff"
          d="M20.603,11.022 C19.930,12.234 18.796,13.248 17.201,14.064 C15.604,14.880 13.486,15.288 10.847,15.288 L8.939,15.288 L8.939,19.281 L12.781,19.281 L12.781,20.187 L8.939,20.187 L8.939,21.552 C8.939,22.512 9.040,23.214 9.245,23.658 C9.448,24.102 9.808,24.396 10.325,24.540 C10.840,24.684 11.662,24.768 12.791,24.792 L12.791,25.584 C9.839,25.512 7.643,25.476 6.203,25.476 C5.002,25.476 3.490,25.500 1.667,25.548 L0.515,25.584 L0.515,24.864 C1.307,24.816 1.888,24.720 2.261,24.576 C2.632,24.432 2.884,24.156 3.017,23.748 C3.148,23.340 3.215,22.680 3.215,21.768 L3.215,20.187 L0.187,20.187 L0.187,19.281 L3.215,19.281 L3.215,3.912 C3.215,3.000 3.148,2.340 3.017,1.932 C2.884,1.524 2.632,1.248 2.261,1.104 C1.888,0.960 1.307,0.864 0.515,0.816 L0.515,0.096 C1.739,0.168 3.562,0.204 5.987,0.204 L9.983,0.168 C10.462,0.144 11.014,0.132 11.639,0.132 C14.879,0.132 17.350,0.774 19.055,2.058 C20.758,3.342 21.611,5.064 21.611,7.224 C21.611,8.544 21.274,9.810 20.603,11.022 ZM14.609,2.472 C13.925,1.368 12.778,0.816 11.171,0.816 C10.523,0.816 10.048,0.900 9.749,1.068 C9.448,1.236 9.238,1.536 9.119,1.968 C8.998,2.400 8.939,3.048 8.939,3.912 L8.939,14.568 L10.487,14.568 C12.431,14.568 13.774,13.944 14.519,12.696 C15.262,11.448 15.635,9.756 15.635,7.620 C15.635,5.292 15.293,3.576 14.609,2.472 Z"/>
</svg>