<svg id="Icons" height="512" viewBox="0 0 74 74" width="512" xmlns="http://www.w3.org/2000/svg"><path d="m17.608 22.566a1.008 1.008 0 0 1 -.465-.114l-5.115-2.689-5.114 2.689a1 1 0 0 1 -1.452-1.052l.977-5.7-4.139-4.031a1 1 0 0 1 .554-1.706l5.718-.83 2.558-5.181a1 1 0 0 1 .9-.558 1 1 0 0 1 .9.558l2.557 5.181 5.718.83a1 1 0 0 1 .554 1.706l-4.142 4.031.977 5.694a1 1 0 0 1 -.986 1.169zm-5.58-4.933a1 1 0 0 1 .466.115l3.786 1.99-.723-4.216a1 1 0 0 1 .287-.884l3.063-2.987-4.233-.614a1 1 0 0 1 -.753-.548l-1.893-3.835-1.893 3.835a1 1 0 0 1 -.753.548l-4.233.614 3.063 2.986a1 1 0 0 1 .288.885l-.724 4.216 3.787-1.99a.994.994 0 0 1 .465-.115z"/><path d="m42.58 22.566a1.012 1.012 0 0 1 -.466-.114l-5.114-2.689-5.114 2.689a1 1 0 0 1 -1.451-1.052l.976-5.694-4.138-4.034a1 1 0 0 1 .555-1.706l5.718-.83 2.554-5.184a1.04 1.04 0 0 1 1.792 0l2.558 5.181 5.718.83a1 1 0 0 1 .555 1.706l-4.134 4.031.976 5.694a1 1 0 0 1 -.985 1.169zm-5.58-4.933a.991.991 0 0 1 .465.115l3.786 1.99-.723-4.216a1 1 0 0 1 .288-.885l3.063-2.986-4.233-.614a1 1 0 0 1 -.752-.548l-1.894-3.836-1.894 3.836a1 1 0 0 1 -.752.548l-4.233.614 3.063 2.986a1 1 0 0 1 .288.885l-.723 4.216 3.786-1.99a.991.991 0 0 1 .465-.115z"/><path d="m56.392 22.566a1 1 0 0 1 -.986-1.169l.977-5.694-4.137-4.034a1 1 0 0 1 .554-1.706l5.718-.83 2.557-5.181a1.041 1.041 0 0 1 1.793 0l2.558 5.181 5.718.83a1 1 0 0 1 .554 1.706l-4.137 4.031.977 5.694a1 1 0 0 1 -1.452 1.055l-5.114-2.689-5.115 2.689a1.008 1.008 0 0 1 -.465.117zm-1.3-10.915 3.063 2.987a1 1 0 0 1 .287.884l-.723 4.216 3.786-1.99a1 1 0 0 1 .931 0l3.787 1.99-.723-4.216a1 1 0 0 1 .288-.885l3.063-2.986-4.233-.614a1 1 0 0 1 -.753-.548l-1.893-3.835-1.893 3.835a1 1 0 0 1 -.753.548z"/><path d="m45.388 46.946a1 1 0 0 1 -1-1v-4.171a1.762 1.762 0 0 0 -3.524 0v3.4a1 1 0 0 1 -2 0v-3.4a3.762 3.762 0 0 1 7.524 0v4.171a1 1 0 0 1 -1 1z"/><path d="m50.913 47.348a1 1 0 0 1 -1-1v-3.458a1.763 1.763 0 1 0 -3.525 0v3.056a1 1 0 0 1 -2 0v-3.056a3.763 3.763 0 1 1 7.525 0v3.458a1 1 0 0 1 -1 1z"/><path d="m55.271 59.92a1 1 0 0 1 -.966-1.262c.221-.815.4-1.614.541-2.376a1 1 0 0 1 1.968.356c-.147.818-.342 1.674-.579 2.544a1 1 0 0 1 -.964.738z"/><path d="m53.01 70.61h-17.46a1 1 0 0 1 -.979-.8c-.623-3-2.6-6.49-4.142-8.892a109.162 109.162 0 0 1 -7.095-12.748l-1.061-2.281c-.72-1.61-.727-2.841-.025-3.672 1.084-1.284 3.215-.815 3.631-.709a1.013 1.013 0 0 1 .237.095c2.718 1.512 5.439 4.716 7.277 7.192l-.053-19.045a3.76 3.76 0 0 1 7.52 0v15.43a1 1 0 0 1 -2 0v-15.43a1.765 1.765 0 0 0 -1.76-1.76 1.762 1.762 0 0 0 -1.76 1.76v19.23a1.916 1.916 0 0 1 -1.326 1.82 1.878 1.878 0 0 1 -2.131-.683c-2.38-3.23-4.725-5.6-6.62-6.7a2.136 2.136 0 0 0 -1.487.089c-.068.082-.145.52.317 1.552l1.054 2.266a107.167 107.167 0 0 0 6.965 12.513 33.879 33.879 0 0 1 4.227 8.769h15.591a14.516 14.516 0 0 1 .419-4.019 1 1 0 0 1 1.942.478 12.373 12.373 0 0 0 -.291 4.428 1 1 0 0 1 -.993 1.117z"/><path d="m56.421 51.54c-.022 0-.044 0-.066 0a1 1 0 0 1 -.933-1.062c.018-.288.018-.567.018-.856v-5.662a1.786 1.786 0 0 0 -.517-1.253 1.765 1.765 0 0 0 -3.013 1.253v2.39a1 1 0 0 1 -2 0v-2.39a3.765 3.765 0 1 1 7.53 0v5.62c0 .372 0 .692-.022 1.024a1 1 0 0 1 -.997.936z"/></svg>