<?xml version="1.0" encoding="utf-8"?><svg viewBox="0 0 640 512" xmlns="http://www.w3.org/2000/svg" xmlns:xlink="http://www.w3.org/1999/xlink"><style>:root>svg{display:none}:root>svg:target{display:block}</style><svg viewBox="0 0 640 314.3" id="arrow_long" xmlns="http://www.w3.org/2000/svg"><path d="M0 164.8h608.1l-157.2 138 10.1 11.5 179-157.1L461 0l-10.1 11.5 157.2 138H0z"/></svg><svg viewBox="0 0 490 490" id="down-arrow" xmlns="http://www.w3.org/2000/svg"><path d="M237.339 0v458.069L99.333 300.928l-11.501 10.11L244.996 490l157.172-178.962-11.516-10.11-137.998 157.141V0z"/></svg><svg viewBox="0 0 24 24" id="i" xmlns="http://www.w3.org/2000/svg"><path d="M12.004 5.838a6.157 6.157 0 00-6.158 6.158 6.157 6.157 0 006.158 6.158 6.157 6.157 0 006.158-6.158 6.157 6.157 0 00-6.158-6.158zm0 10.155a3.996 3.996 0 113.997-3.997 3.995 3.995 0 01-3.997 3.997z"/><path d="M16.948.076c-2.208-.103-7.677-.098-9.887 0-1.942.091-3.655.56-5.036 1.941C-.283 4.325.012 7.435.012 11.996c0 4.668-.26 7.706 2.013 9.979 2.317 2.316 5.472 2.013 9.979 2.013 4.624 0 6.22.003 7.855-.63 2.223-.863 3.901-2.85 4.065-6.419.104-2.209.098-7.677 0-9.887-.198-4.213-2.459-6.768-6.976-6.976zm3.495 20.372c-1.513 1.513-3.612 1.378-8.468 1.378-5 0-7.005.074-8.468-1.393-1.685-1.677-1.38-4.37-1.38-8.453 0-5.525-.567-9.504 4.978-9.788 1.274-.045 1.649-.06 4.856-.06l.045.03c5.329 0 9.51-.558 9.761 4.986.057 1.265.07 1.645.07 4.847-.001 4.942.093 6.959-1.394 8.453z"/><circle cx="18.406" cy="5.595" r="1.439"/></svg><svg viewBox="0 0 329.052 57.093" id="logo" xmlns="http://www.w3.org/2000/svg"><defs><clipPath id="da" transform="translate(-18.148 -14.862)"><path fill="none" d="M0 0h365.346v86.818H0z"/></clipPath></defs><g clip-path="url(#da)"><path d="M37.534 50.687a1.762 1.762 0 01.079.46 2.344 2.344 0 01-.041.54 1.007 1.007 0 01-.226.479.72.72 0 01-.462.241 1.747 1.747 0 01-.342.08q-3.064.4-6.8.921-6.351.878-11.619 1.6-7.053.962-11.108 1.481-2.4.321-3.675.44a12.357 12.357 0 01-1.922.159 1.408 1.408 0 01-.978-.7 2.1 2.1 0 01-.439-1.3 1.173 1.173 0 01.8-1c.086-.027.222-.06.407-.1a2.243 2.243 0 01.355-.06 1.89 1.89 0 00.4-.16.235.235 0 00.085-.019.193.193 0 01.086-.022c.4-.213.651-.347.745-.4a13.484 13.484 0 001.673-1.2 8.894 8.894 0 00.869-.719.679.679 0 00.122-.161.15.15 0 01.091-.04.164.164 0 00.06-.081 3.983 3.983 0 01.425-.4q.87-.881 1.8-2 1.743-2.081 3.716-4.88a141.512 141.512 0 007.529-12.4q3.36-6.12 6.665-13.081 2.9-6.2 4.943-11.239.938-2.36 1.5-4.04c.2-.561.352-1.04.457-1.441l.063-.24.063-.24.01-.039.011-.04-.021.079.052-.2a1.079 1.079 0 01.455-.82.848.848 0 01.855-.06 1.91 1.91 0 01.581.46 2.085 2.085 0 01.4.7 1.594 1.594 0 01.081.759 6.667 6.667 0 01-.169.8 9.785 9.785 0 00-.33 1.259 8 8 0 01-.391 1.261c-.241.667-.39 1.086-.45 1.259s-.22.588-.484 1.24-.434 1.068-.505 1.241-.247.586-.524 1.24-.453 1.059-.521 1.22q-2.849 6.759-6.517 14.039-4.353 8.682-8.411 15.321a73.63 73.63 0 01-8.56 11.76q-.335.359-.647.641 5.5-.683 16.456-2.2 6.429-.88 11.708-1.64a1.139 1.139 0 011 .32 2.353 2.353 0 01.6.92"/><path d="M57.464 37.208q.84-.919.831-.12a3.856 3.856 0 01-.61 1.72q-.327.48-1 1.279t-1.673 1.821a25.135 25.135 0 01-2.294 2.039 32.239 32.239 0 01-2.657 1.9 14.059 14.059 0 01-2.892 1.42 8.648 8.648 0 01-2.882.54q-2.8 0-3.856-1.161a4.4 4.4 0 01-1.088-3.48 8.143 8.143 0 01.164-1.239 26.827 26.827 0 01-5.11 4.24 6.334 6.334 0 01-3.663 1.159 2.715 2.715 0 01-2.372-1.558 4.7 4.7 0 01-.461-3.2q.45-2.639 3.663-6.2a27.29 27.29 0 015.114-4.559q2.67-1.8 4.288-1.561a3.734 3.734 0 012.9 2.2c.155-.185.29-.346.406-.479a1.224 1.224 0 011.27-.421 1.653 1.653 0 01.9.981 1.757 1.757 0 01.084 1.36q-.114.279-.96 1.68-.991 1.64-1.592 2.72-.215.359-.45.8a.793.793 0 00-.092.2 6.773 6.773 0 01-.185.4 30.556 30.556 0 00-.749 1.64q-.339.84-.579 1.6l-.1.4-.01.039-.011.04a.465.465 0 01-.018.22 1.674 1.674 0 00-.048.261 1.48 1.48 0 000 .24v.159l-.021.081a.757.757 0 010 .14c0 .013.008.019.035.019l-.01.04-.011.04h.04l-.01.04c.025 0 .022.015-.011.041h.039l.011-.041a1.193 1.193 0 01.179.081h.08q.419.079.728.12a10.231 10.231 0 002.383-.241 21.022 21.022 0 008.75-4.239 33.58 33.58 0 002.769-2.32l.01-.041.127-.1a.234.234 0 00.085-.1l.325-.321a1.565 1.565 0 00.233-.279m-27.374 7.079zm7.092-4.319q2.1-2.081 4.65-5.08a1.984 1.984 0 01-.008-1.04.4.4 0 00.063-.241c-.026 0-.036-.012-.029-.039l.02-.081-.277-.159a2.6 2.6 0 00-.448-.121h-.2a3.053 3.053 0 00-.732.2 3.29 3.29 0 00-.774.361 10.339 10.339 0 00-.948.559 24.589 24.589 0 00-4.453 3.721 28.544 28.544 0 00-2.338 2.739 9.137 9.137 0 00-1.376 2.58 4.129 4.129 0 00-.106.561 1.9 1.9 0 01-.044.32l.019.079c.027 0 .084.008.174.02a1.508 1.508 0 00.176.021h.04a.905.905 0 01.2-.06.952.952 0 01.185-.021q.3-.08.744-.239a.829.829 0 00.17-.04l.051-.04c.119-.054.226-.107.321-.16a18.151 18.151 0 001.622-1 27.051 27.051 0 003.3-2.84m4.593 4.76l-.01.04.01-.04.01-.04c-.026 0-.035-.014-.028-.041h-.04c-.007.027.011.054.058.081m.031-.121h-.079l.021-.08.061-.08a.622.622 0 000 .16m-.01.04l-.029-.04zm.091-11.04l.011-.039-.03-.041a.089.089 0 00.019.08m-.019-.08l.01-.04zm.04 0l.01-.04-.01.04-.01.041zm4.393.641l-.061.079h-.04l-.021.08c.094-.053.135-.1.122-.159M105.134 50.687a1.762 1.762 0 01.079.46 2.344 2.344 0 01-.041.54 1.007 1.007 0 01-.226.479.72.72 0 01-.462.241 1.747 1.747 0 01-.342.08q-3.065.4-6.8.921-6.351.878-11.619 1.6-7.053.962-11.108 1.481-2.4.321-3.675.44a12.357 12.357 0 01-1.922.159 1.408 1.408 0 01-.978-.7 2.1 2.1 0 01-.439-1.3 1.173 1.173 0 01.8-1c.086-.027.222-.06.407-.1a2.243 2.243 0 01.355-.06 1.89 1.89 0 00.4-.16.235.235 0 00.085-.019.193.193 0 01.086-.022c.4-.213.651-.347.745-.4a13.484 13.484 0 001.673-1.2 8.894 8.894 0 00.869-.719.679.679 0 00.122-.161.15.15 0 01.091-.04.164.164 0 00.06-.081 3.983 3.983 0 01.425-.4q.87-.881 1.805-2 1.743-2.081 3.716-4.88a141.512 141.512 0 007.529-12.4q3.36-6.12 6.665-13.081 2.9-6.2 4.943-11.239.938-2.36 1.5-4.04c.2-.561.352-1.04.457-1.441l.063-.24.063-.24.01-.039.011-.04-.021.079.052-.2a1.079 1.079 0 01.455-.82.848.848 0 01.855-.06 1.91 1.91 0 01.581.46 2.085 2.085 0 01.4.7 1.594 1.594 0 01.081.759 6.667 6.667 0 01-.169.8 9.785 9.785 0 00-.33 1.259 8 8 0 01-.391 1.261c-.241.667-.39 1.086-.45 1.259s-.22.588-.484 1.24-.434 1.068-.505 1.241-.247.586-.524 1.24-.453 1.059-.521 1.22q-2.849 6.759-6.517 14.039-4.353 8.682-8.411 15.321a73.63 73.63 0 01-8.56 11.76q-.335.359-.647.641 5.5-.683 16.456-2.2 6.429-.88 11.708-1.64a1.139 1.139 0 011 .32 2.353 2.353 0 01.6.92"/><path d="M125.636 36.848q.537-.521.679.16a1.8 1.8 0 01-.273 1.2 11.181 11.181 0 01-.891 1.261 33.788 33.788 0 01-2.291 2.559 34.971 34.971 0 01-3.31 3.02 16.828 16.828 0 01-4.1 2.381 10.749 10.749 0 01-4.535.9 3.519 3.519 0 01-2.294-.94 4.29 4.29 0 01-1.236-2.079 6.5 6.5 0 01-.114-2.62.275.275 0 01-.008-.12 26.7 26.7 0 01-4.46 4.2 7.738 7.738 0 01-3.589 1.639 3.434 3.434 0 01-2.15-.5 3.053 3.053 0 01-1.244-1.659 4.088 4.088 0 01-.2-1.62 7.829 7.829 0 01.279-1.68 12.81 12.81 0 01.723-1.84q.5-1.061.819-1.68t.955-1.66q.806-1.4 2.436-3.88t2.048-3.16a.712.712 0 01.343-.32.677.677 0 01.391-.041 2.649 2.649 0 01.389.12 1.056 1.056 0 01.327.2c.086.08.162.146.228.2a1.681 1.681 0 01.284 2.12q-.325.48-2.153 3.26t-2.666 4.3q-.552 1.041-.973 1.879a14.155 14.155 0 00-.782 1.921l-.126.48-.062.24a1.547 1.547 0 00-.044.32h.3c.012 0 .061-.007.144-.021a1.453 1.453 0 01.166-.02c.113-.026.24-.052.381-.08a1.872 1.872 0 00.351-.12.537.537 0 00.181-.079h.04a14.4 14.4 0 003.348-2.4 53.922 53.922 0 006.317-7.321q1.747-2.4 2.921-4.28a.736.736 0 01.6-.319 1.253 1.253 0 01.637.16 1.969 1.969 0 01.465.359 1.64 1.64 0 01.246 2.12q-.326.482-.775 1.281l-.756 1.36a7.292 7.292 0 00-.175.36 1.929 1.929 0 00-.132.2l-.01.04c-.171.346-.316.639-.431.879a27.044 27.044 0 00-1.451 3.4 16.036 16.036 0 00-.58 1.761l-.052.2-.032.12a1.872 1.872 0 00-.023.239c-.045.268-.083.521-.12.761-.007.026-.015.16-.024.4l-.011.04a.726.726 0 01.068.2.511.511 0 01.017.24l-.021.08.03.04-.01.039.059.08h.08a.191.191 0 00.124.061.217.217 0 01.125.059h.12a5.028 5.028 0 001.889-.039q4.049-.64 9.3-4.64 1.644-1.24 3.222-2.681.212-.2.536-.52c.033-.026.067-.052.1-.08l-.05.041.05-.041a.325.325 0 00.112-.12 3.323 3.323 0 00.322-.319m-27.9 8.48l-.01.039zm.03.039a.6.6 0 01.15.041c.006-.026-.043-.041-.15-.041m11.884-.32l.01-.039a.265.265 0 00-.009-.12.317.317 0 010 .159"/><path d="M150.707 36.888q.506-.559.678.159a1.567 1.567 0 01-.06.84 8.307 8.307 0 01-1.1 1.68 26.2 26.2 0 01-2.3 2.52 36 36 0 01-3.037 2.661 18.827 18.827 0 01-3.551 2.179 11 11 0 01-3.662 1.081 3.233 3.233 0 01-3.293-1.481 4.845 4.845 0 01-.541-3.28 14.567 14.567 0 01.315-1.74q.227-.939.419-1.6t.562-1.761q.366-1.1.544-1.62c-.289.188-.6.395-.922.62s-.609.441-.849.641-.531.453-.879.76-.607.54-.783.7-.459.428-.849.8-.654.613-.789.719q-.537.521-1.861 1.76t-2.325 2.16q-1 .921-1.961 1.681a6.492 6.492 0 01-2.1 1.319 1.348 1.348 0 01-1.642-.679 2.21 2.21 0 01-.176-2 19.621 19.621 0 011.491-2.64q.083-.16 2.4-3.8 1.632-2.559 2.559-4.12a27.923 27.923 0 001.66-3.28.889.889 0 01.742-.619 1.055 1.055 0 01.843.219 3.314 3.314 0 01.473.56 1.861 1.861 0 01.285.74 1.377 1.377 0 01-.114.821 28.177 28.177 0 01-1.691 3.4q-.949 1.641-2.437 3.96 2.6-2.44 3.327-3.081a33.938 33.938 0 014.514-3.64 4.84 4.84 0 011.7-.68q1.493-.2 2.083 1.52a4.118 4.118 0 01.034 2.16 11.791 11.791 0 01-.677 2.28c-.022.081-.135.44-.343 1.08s-.367 1.121-.478 1.441q-.208.8-.367 1.4l-.073.281-.062.239-.01.04-.011.041-.032.119-.041.16a7.576 7.576 0 00-.114 1.2l-.022.081c-.007.027 0 .039.03.039l-.021.081q2.7.239 6.583-1.92a33.138 33.138 0 005.719-4.12q.515-.441.991-.88c.032-.028.14-.134.323-.321a3.425 3.425 0 01.263-.24c.257-.266.472-.48.648-.639m-29.163 7.8a.408.408 0 00-.131.04l.091-.04zm14.406.281zm.08 0l.03.04.01-.04zm.129.12l.03.039zm.1.24a.454.454 0 00-.067-.2l.029.04-.011.041c.039.054.056.093.049.12"/><path d="M176.823 37.208q.84-.919.831-.12a3.856 3.856 0 01-.61 1.72q-.327.48-1 1.279t-1.678 1.821a25.135 25.135 0 01-2.294 2.039 32.239 32.239 0 01-2.657 1.9 14.059 14.059 0 01-2.892 1.42 8.648 8.648 0 01-2.882.54q-2.8 0-3.856-1.161a4.4 4.4 0 01-1.088-3.48 8.143 8.143 0 01.164-1.239 26.827 26.827 0 01-5.11 4.24 6.334 6.334 0 01-3.663 1.159 2.715 2.715 0 01-2.372-1.559 4.7 4.7 0 01-.461-3.2q.45-2.639 3.663-6.2a27.29 27.29 0 015.114-4.559q2.67-1.8 4.288-1.561a3.734 3.734 0 012.9 2.2c.155-.185.29-.346.406-.479a1.224 1.224 0 011.27-.421 1.653 1.653 0 01.9.981 1.757 1.757 0 01.084 1.36q-.114.279-.96 1.68-.992 1.64-1.592 2.72-.214.359-.45.8a.793.793 0 00-.092.2 6.773 6.773 0 01-.185.4 30.556 30.556 0 00-.749 1.64q-.339.84-.579 1.6l-.1.4-.01.039-.011.04a.465.465 0 01-.018.22 1.674 1.674 0 00-.048.261 1.48 1.48 0 000 .24v.159l-.021.081a.757.757 0 010 .14c0 .013.008.019.035.019l-.01.04-.011.04h.04l-.01.04c.025 0 .022.015-.011.041h.039l.011-.041a1.193 1.193 0 01.179.081h.08q.418.079.728.12a10.231 10.231 0 002.383-.241 21.022 21.022 0 008.75-4.239 33.58 33.58 0 002.769-2.32l.01-.041.127-.1a.234.234 0 00.085-.1l.325-.321a1.565 1.565 0 00.233-.279m-27.365 7.08zm7.092-4.319q2.1-2.081 4.65-5.08a1.984 1.984 0 01-.008-1.04.4.4 0 00.063-.241c-.026 0-.036-.012-.029-.039l.02-.081-.277-.159a2.6 2.6 0 00-.448-.121h-.2a3.053 3.053 0 00-.732.2 3.29 3.29 0 00-.774.361 10.339 10.339 0 00-.948.559 24.589 24.589 0 00-4.453 3.721 28.544 28.544 0 00-2.338 2.739 9.137 9.137 0 00-1.376 2.58 4.129 4.129 0 00-.106.561 1.9 1.9 0 01-.044.32l.019.079c.027 0 .084.008.174.02a1.508 1.508 0 00.176.021h.04a.905.905 0 01.195-.06.952.952 0 01.185-.021q.3-.08.744-.239a.829.829 0 00.17-.04l.051-.04c.119-.054.226-.107.321-.16a18.151 18.151 0 001.622-1 27.051 27.051 0 003.3-2.84m4.593 4.76l-.01.04.01-.04.01-.04c-.026 0-.035-.014-.028-.041h-.04c-.007.027.011.054.058.081m.031-.121h-.079l.021-.08.061-.08a.622.622 0 000 .16m-.01.04l-.029-.04zm.091-11.04l.011-.039-.03-.041a.089.089 0 00.019.08m-.019-.08l.01-.04zm.04 0l.01-.04-.01.04-.01.041zm4.393.641l-.061.079h-.04l-.021.08c.094-.053.135-.1.122-.159M238.426 7.406a17.741 17.741 0 01-2.122 5.66 29.441 29.441 0 01-3.99 5.46 21.666 21.666 0 01-1.645 1.7 21.918 21.918 0 01-1.909 1.559 14.091 14.091 0 01-2.074 1.28 8.448 8.448 0 01-2.129.72 4.975 4.975 0 01-2.134-.019 1.7 1.7 0 01-1.068-.661 2.553 2.553 0 01-.52-1.219 1.5 1.5 0 01.248-1.1.868.868 0 01.97-.5 1.8 1.8 0 00.539.08h.321a5.909 5.909 0 001-.159c.2-.054.387-.106.562-.161a.32.32 0 01.135-.059.336.336 0 00.136-.06h.04a9.821 9.821 0 001.156-.6 17.033 17.033 0 002.381-1.76c.176-.159.385-.345.628-.56l.111-.119a3.456 3.456 0 01.263-.241c.363-.373.736-.772 1.114-1.2a29.1 29.1 0 002.051-2.639q.834-1.2 1.663-2.68l.02-.08a.158.158 0 00.06-.08 2.743 2.743 0 00.164-.32 6.672 6.672 0 00.288-.64q.3-.681.546-1.32c.131-.4.256-.827.375-1.281a.868.868 0 00.033-.2.45.45 0 01.011-.119 4.1 4.1 0 00.106-.561.217.217 0 01-.022-.139c0-.067.005-.126.007-.18a.691.691 0 01.021-.161.41.41 0 00-.027-.2l.012-.2a.413.413 0 01-.078-.159l-.029-.041a.282.282 0 01-.1-.079.317.317 0 01-.1-.08 1.051 1.051 0 01-.3-.081l-.069-.039a.6.6 0 01-.155-.02.785.785 0 00-.194-.021 5.279 5.279 0 00-.631-.039h-.4a21.946 21.946 0 00-6.381 1.76 2.385 2.385 0 00-.362.16 6.932 6.932 0 01-.4.16q-.413.2-.875.44-.956.439-1.891.959-1.923 1.082-3.768 2.321a42.469 42.469 0 00-6.8 5.52 30.152 30.152 0 00-2.78 3.28 20.141 20.141 0 00-1.119 1.679q-.491.8-.839 1.521a14.56 14.56 0 00-.65 1.72 5.393 5.393 0 00-.231.879l-.031.12a1.941 1.941 0 00-.075.441 9.167 9.167 0 00-.121.92.115.115 0 01.014.1.529.529 0 00-.016.14.527.527 0 01-.013.12l.031.039c.015.347.036.628.06.84a1.664 1.664 0 00.055.4v.161a.862.862 0 01.086.279 1.467 1.467 0 00.116.32 3.682 3.682 0 00.212.72c.026 0 .059.054.1.161s.064.187.078.239c.1.215.217.441.341.681.228.454.493.919.793 1.4.151.24.314.48.492.721a2 2 0 00.2.319l.03.04c-.008.026 0 .04.029.04q.283.441.994 1.4t1.1 1.52q.394.561.934 1.4t.991 1.56a16.168 16.168 0 012.428 6.92 10.388 10.388 0 01-1.448 6.6 8.749 8.749 0 01-2.63 2.481 12.675 12.675 0 01-3.273 1.5 21.151 21.151 0 01-3.352.66 18.361 18.361 0 01-11.187-2.04 11.7 11.7 0 01-2.259-1.681 10.318 10.318 0 01-1.735-2.159 7.9 7.9 0 01-1-2.68 8.383 8.383 0 01.026-3.08 1.51 1.51 0 01.557-.98.975.975 0 011-.06 1.914 1.914 0 01.983.9 2.077 2.077 0 01.27 1.339 10.607 10.607 0 00-.165 1.241.61.61 0 01.017.159.192.192 0 00.03.12c0 .08.026.253.063.52a.264.264 0 00.009.12.316.316 0 00.049.12 1.026 1.026 0 01.088.2 1.2 1.2 0 01.066.28l.118.161a2.266 2.266 0 00.215.4h.04a.481.481 0 00.148.2 5.28 5.28 0 00.365.441.331.331 0 00.1.079c-.006.026.012.053.059.08l.029.04.03.04-.03-.04a2.627 2.627 0 00.466.36 3.123 3.123 0 00.5.36l.2.16a.52.52 0 01.18.081.305.305 0 00.14.079c.091.054.184.106.276.16a5.416 5.416 0 00.567.28 7.953 7.953 0 001.235.48l.657.24.15.04a.085.085 0 01.069.04h.16a19.8 19.8 0 005.523.6l.25-.039h.321l.74-.081a12.313 12.313 0 001.384-.24 14.332 14.332 0 002.549-.719q.089-.042.18-.081a2.136 2.136 0 00.221-.081 6.117 6.117 0 01.554-.279 7.5 7.5 0 001.046-.64c.2-.161.492-.4.869-.72l.1-.08a1.318 1.318 0 01.172-.2l.346-.4a4.254 4.254 0 00.336-.52.4.4 0 01.071-.121.432.432 0 00.072-.12 8.8 8.8 0 00.4-1.079l.042-.16.031-.12.021-.08a7.84 7.84 0 00.054-.359c.051-.294.087-.587.111-.881.015-.16.027-.306.036-.44a.338.338 0 000-.1c0-.041 0-.081-.008-.121a.336.336 0 01.006-.1.276.276 0 00-.008-.12l-.009-.119a3.286 3.286 0 00-.005-.441q-.054-.4-.14-.84a.165.165 0 00-.014-.1.162.162 0 01-.014-.1l.038.16a2.049 2.049 0 00-.124-.44q-.182-.68-.512-1.56c-.019-.026-.035-.046-.044-.06a.07.07 0 010-.06 2.269 2.269 0 00-.2-.32 4.614 4.614 0 00-.372-.72q-.372-.719-.851-1.48a3.9 3.9 0 00-.493-.72c.007-.026-.019-.08-.079-.159l-.057-.081c-.059-.08-.1-.133-.118-.16q-.345-.519-1-1.4l-2.182-3.12a17.689 17.689 0 01-2.743-6.48 12.518 12.518 0 011.177-7.4q3.141-6.8 11.873-12.8a45.311 45.311 0 017.6-4.279 24.776 24.776 0 016.785-2.08q3.505-.4 5.172 1.48a6.126 6.126 0 011.108 5.239m-44.826 43.039l-.088-.12.088.12m16.46-17.64l-.089-.12.089.12m25.14-28.64l.029.039z"/><path d="M247.911 26.367a1.117 1.117 0 01-.474.82.714.714 0 01-.835.059q-.538-.238-1.195-.479a.235.235 0 01-.11-.04h-.119a.785.785 0 00-.3-.08l-.677-.16a20.43 20.43 0 00-3.3-.24c-2.5-.027-1.34.227-4.519.759-4.312 6.482-4.6 6.188-6.885 11.121q-1.281 2.762-2.089 5.081-.406 1.239-.687 2.32l-.168.64-.022.08-.052.2c-.064.347-.112.68-.142 1a6.917 6.917 0 00-.112 1.04c-.015.16-.028.307-.035.441a.629.629 0 000 .16 8.037 8.037 0 01.05.879.2.2 0 01.034.1.328.328 0 00.028.12.171.171 0 01.013.1.28.28 0 01.009.12.794.794 0 01.022-.08.082.082 0 00.019.08c.011.053.056.187.134.4a2.868 2.868 0 00.146.361h.041a1.135 1.135 0 00.235.319 2.843 2.843 0 00.606.441 1.651 1.651 0 01.659.92 1.813 1.813 0 01.035 1.16.845.845 0 01-.737.6 1.251 1.251 0 01-.848-.2 5.512 5.512 0 01-2.454-3.38 11.546 11.546 0 01-.2-4.94 40.153 40.153 0 013.489-10.119c1.559-3.307.556-.96 2.989-4.96q.919-1.521 2-3.2c-.482.106-.937.214-1.364.32-4.627 1.067-5.243 1.148-7.849 2.241a.823.823 0 01-1-.24 2.409 2.409 0 01-.6-1c-.258-.853-.039-1.426.651-1.72a8.425 8.425 0 012.31-.8 96 96 0 0110.2-2.441q2.147-3.157 4.689-6.758.631-.881 1.5.019a1.937 1.937 0 01.6 1.9 1.008 1.008 0 01-.176.36l-2.747 3.92q2.516-.281 4.341-.38c1.216-.067-1.431-.014.058.16a10.965 10.965 0 013.779 1.057 1.756 1.756 0 01.836.779 1.815 1.815 0 01.22 1.14m-21.556 23.96c.006-.026 0-.04-.031-.04z"/><path d="M263.835 36.848q.537-.521.679.16a1.8 1.8 0 01-.273 1.2 11.181 11.181 0 01-.891 1.261 33.788 33.788 0 01-2.291 2.559 35.1 35.1 0 01-3.311 3.02 16.8 16.8 0 01-4.1 2.381 10.752 10.752 0 01-4.535.9 3.519 3.519 0 01-2.294-.94 4.29 4.29 0 01-1.236-2.079 6.486 6.486 0 01-.114-2.62.279.279 0 01-.009-.12 26.7 26.7 0 01-4.459 4.2 7.738 7.738 0 01-3.589 1.639 3.434 3.434 0 01-2.15-.5 3.055 3.055 0 01-1.245-1.659 4.107 4.107 0 01-.195-1.62 7.829 7.829 0 01.279-1.68 12.81 12.81 0 01.723-1.84q.5-1.061.819-1.68t.955-1.66q.805-1.4 2.436-3.88t2.047-3.16a.718.718 0 01.344-.32.677.677 0 01.391-.041 2.649 2.649 0 01.389.12 1.056 1.056 0 01.327.2c.085.08.162.146.227.2a1.681 1.681 0 01.285 2.12q-.326.48-2.153 3.26t-2.666 4.3q-.552 1.041-.974 1.879a14.136 14.136 0 00-.781 1.921l-.126.48-.063.24a1.63 1.63 0 00-.043.32h.3c.012 0 .061-.007.144-.021a1.47 1.47 0 01.165-.02c.113-.026.241-.052.382-.08a1.872 1.872 0 00.351-.12.537.537 0 00.181-.079h.039a14.383 14.383 0 003.349-2.4 53.922 53.922 0 006.317-7.321q1.748-2.4 2.921-4.28a.736.736 0 01.605-.319 1.256 1.256 0 01.637.16 1.969 1.969 0 01.465.359 1.64 1.64 0 01.246 2.12c-.218.321-.475.747-.776 1.281l-.755 1.36a7.292 7.292 0 00-.175.36 1.929 1.929 0 00-.132.2l-.01.04c-.171.346-.316.639-.431.879a27.044 27.044 0 00-1.451 3.4 16.036 16.036 0 00-.58 1.761l-.052.2-.032.12a1.872 1.872 0 00-.023.239 43.65 43.65 0 00-.12.761c-.007.026-.015.16-.024.4l-.011.04a.7.7 0 01.067.2.514.514 0 01.018.24l-.021.08.03.04-.011.039.06.08h.08a.189.189 0 00.124.061.217.217 0 01.125.059h.12a5.028 5.028 0 001.889-.039q4.047-.64 9.3-4.64 1.644-1.24 3.222-2.681.212-.2.536-.52c.033-.026.067-.052.1-.08l-.051.041.051-.041a.32.32 0 00.111-.12 3.257 3.257 0 00.323-.319m-27.9 8.48l-.011.039zm.03.039a.609.609 0 01.15.041c.006-.026-.044-.041-.15-.041m11.881-.321l.011-.039a.265.265 0 00-.009-.12.317.317 0 010 .159"/><path d="M290.335 36.928q.627-.561.517.32a3.673 3.673 0 01-.333 1.119 9.128 9.128 0 01-1.428 1.861 27.211 27.211 0 01-2.695 2.5q-1.606 1.32-3.339 2.519a20.214 20.214 0 01-3.559 1.981 8.21 8.21 0 01-3.1.78 3.524 3.524 0 01-3.6-2.44 7.691 7.691 0 01.075-4.56l.231-.881a38.271 38.271 0 01-4.816 4.641q-2.917 2.279-5.066 2.24a2.644 2.644 0 01-2.094-.94 3.761 3.761 0 01-.908-2.26q-.135-2.081 1.869-5a33.152 33.152 0 014.076-4.72 17.459 17.459 0 014.2-3.04 4.327 4.327 0 014.033-.28 4.452 4.452 0 011.446 1.2q1.909-2.559 4.068-5.76 2.418-4.041 5.78-9.24.519-.76 2.647-4 1.062-1.761 1.235-1.96.821-1 1.636.16a2 2 0 01.469 1.88 9.214 9.214 0 01-.5.84q-.4.6-.936 1.439l-.358.6q-1.681 2.758-3.048 4.919-2.651 4.282-4.985 7.682-1.429 2.4-2.6 4.6a60.971 60.971 0 00-2.746 5.6q-.606 1.4-.99 2.559c-.133.4-.246.788-.345 1.161l-.067.259-.069.261a.56.56 0 00-.011.12.553.553 0 01-.011.12 9.4 9.4 0 00-.132.96.556.556 0 000 .159l-.03-.04c.026 0 .036.015.03.04l-.021.081h.04a.721.721 0 00-.017.139.213.213 0 00.024.141.248.248 0 00.008.12.09.09 0 01-.019-.08.251.251 0 00.009.12l.029.04-.01.039h.039l-.029-.039.139.08a.791.791 0 01.134.02.813.813 0 00.135.02 7.747 7.747 0 003.256-.519 28.867 28.867 0 007.934-4.482 39.364 39.364 0 003.806-3.079m-20.467 2.239q1.167-1.238 2.443-2.758.923-1.082 1.878-2.282l.031-.12.02-.079.042-.16.011-.04-.1-.08-.106-.06-.1-.06a5.362 5.362 0 00-.289-.12l-.27-.04h-.2a1.4 1.4 0 00-.33.04 9.934 9.934 0 00-3.7 2.08 26.477 26.477 0 00-3.978 4.04q-1.017 1.279-1.82 2.52a7.045 7.045 0 00-.548 1.1 3.242 3.242 0 00-.215.74l-.031.12h.36a7.217 7.217 0 00.762-.16c.059-.026.224-.093.493-.2a.2.2 0 00.129-.041.689.689 0 00.142-.08 11.578 11.578 0 001.026-.56 21.823 21.823 0 002.211-1.721 6.119 6.119 0 00.576-.519 3.993 3.993 0 00.313-.28l.112-.121.051-.039q.536-.519 1.092-1.121m5.01 5.16l-.012.041zm.053.561l-.029-.04.01-.04a.094.094 0 01.019.08m16.494-31.521a.049.049 0 00.051-.039z"/><path d="M305.936 36.768q.545-.4.435.48a3.477 3.477 0 01-.519 1.361 10.288 10.288 0 01-1.275 1.359q-1.012.962-2.7 2.28t-3.534 2.5a22.262 22.262 0 01-3.985 2 10.967 10.967 0 01-3.894.82 3.008 3.008 0 01-2.934-2.24 5.608 5.608 0 01.122-3.52 30.138 30.138 0 014.027-7.28q1.486-2.162 2.9-3.88.711-.879 1.609.12a1.749 1.749 0 01.508 1.88 2.162 2.162 0 01-.2.319q-1.533 1.883-3.151 4.241-1.24 1.84-2.13 3.4c-.063.133-.147.305-.257.519l-.061.08a.211.211 0 01-.071.12c-.138.32-.261.586-.37.8a10.425 10.425 0 00-.567 1.56.815.815 0 00-.1.36l-.021.08-.02.079-.022.08-.023.241a.577.577 0 00.149.04 6.194 6.194 0 001.662-.079q3.566-.642 9.3-4.2 2.923-1.839 5.122-3.52m-16.284 7.96l.03.04zm7.845-16.361a2.17 2.17 0 01-.452-1.02 1.409 1.409 0 01.208-1.1q.456-.68 1.414-2.039a.794.794 0 01.608-.34.939.939 0 01.618.159 6.091 6.091 0 01.481.38 2.227 2.227 0 01.458 1 1.452 1.452 0 01-.213 1.121q-.5.68-1.4 2a.741.741 0 01-.614.36 1.147 1.147 0 01-.618-.161 3.357 3.357 0 01-.486-.36"/><path d="M328.167 36.647q.493-.358.759.08a.641.641 0 01-.03.8 14.062 14.062 0 01-5.944 3.76 17.333 17.333 0 01-7.383 1.16 5.649 5.649 0 01-.366.48 10.621 10.621 0 01-5.631 4.241 4.638 4.638 0 01-3.566-.361 4.1 4.1 0 01-2.008-2.639q-.81-3.321 1.8-7.641.54-.839 1.17-1.639a13.343 13.343 0 011.372-1.5 10.725 10.725 0 011.63-1.261 7.8 7.8 0 011.76-.84.434.434 0 00.171-.039 4.462 4.462 0 012.831-.12 4 4 0 011.958 1.08 4.35 4.35 0 011.1 1.9 6.808 6.808 0 01.217 2.38 10.987 10.987 0 01-.806 3.08l.069.04a17.581 17.581 0 007.916-1.36c.06-.025.12-.053.181-.079l.362-.161a4.672 4.672 0 01.593-.28q.513-.279.987-.56.563-.318.856-.52m-17.024 6.2a7.516 7.516 0 001.041-.92 4.04 4.04 0 00.234-.281 5.861 5.861 0 01-2.167-1.96 6.316 6.316 0 01-1.046-2.879 12.162 12.162 0 00-1.986 3 10.126 10.126 0 00-.658 1.6 4.239 4.239 0 00-.21.8l-.011.041-.031.12-.026.1a.2.2 0 00-.007.1.243.243 0 01-.011.12 1.393 1.393 0 00-.029.34 1.386 1.386 0 01-.028.34.086.086 0 00.018.08.81.81 0 01.007.28l.029.041a.7.7 0 00.068.2.336.336 0 00.048.119.086.086 0 01.07.041l.109.04a.326.326 0 01.14.08.086.086 0 01.069.039h.08l.27.04a3.2 3.2 0 00.549.041.489.489 0 00.252-.041 1.427 1.427 0 00.329-.04 2.731 2.731 0 00.6-.159 3.066 3.066 0 01.34-.08c.008-.027.068-.053.182-.08.214-.107.4-.2.553-.281a10.767 10.767 0 001.22-.839m-4.687 1.278a.256.256 0 00.109.04.127.127 0 00-.109-.04m7.7-10.16a3.43 3.43 0 00-.53.039 2.189 2.189 0 00-1.116.44l-.252.2-.1.08c-.129.187-.237.348-.326.481l-.011.04a1 1 0 00-.082.159c-.027.107-.056.215-.084.32l-.02.081.01-.04-.01.04-.011.04a.677.677 0 00-.033.279.621.621 0 00-.012.2l-.022.081.049.119a.532.532 0 00.018.241l-.011.04.019.08.021-.08a.135.135 0 00.009.12c.013.053.041.147.087.28l.049.12a.364.364 0 00-.049-.12.37.37 0 00.062.14c.03.04.064.087.1.139a.472.472 0 01.078.16.081.081 0 00.069.04q.117.162.267.361a.943.943 0 01.128.12c.112.079.215.146.307.2a.7.7 0 00.208.121 5.977 5.977 0 001.365.6c.06-.133.118-.253.173-.361.026 0 .051-.04.072-.119l.011-.041a1.212 1.212 0 00.163-.32 9.661 9.661 0 00.555-1.359l.179-.681.02-.08c.006-.027.02-.072.038-.14s.029-.113.037-.139a5.1 5.1 0 00.047-.64l-.009-.12.021-.08-.019-.08a.346.346 0 000-.16.393.393 0 00-.048-.121.185.185 0 00-.038-.16c.007-.025-.01-.066-.048-.12l-.03-.04a.088.088 0 00-.07-.039l-.029-.041a.269.269 0 00-.11-.039.087.087 0 00-.07-.04.21.21 0 00-.124-.061.757.757 0 00-.135-.019.085.085 0 00-.07-.04 3.353 3.353 0 00-.7-.08m-2.544 2.84c.007-.027.02-.027.04 0zm.022-1l-.011.04zm3.729-1.561a.269.269 0 00-.11-.039.246.246 0 00.11.039"/></g></svg><svg viewBox="0 0 512 512" id="phone" xmlns="http://www.w3.org/2000/svg"><path d="M93.39 512c-22.804 0-41.878-5.914-56.988-17.71C12.246 475.421 0 442.718 0 397.085c0-40.711 29.012-75.137 68.98-81.86a292.189 292.189 0 0036.903-8.706c21.43-6.56 44.508-.868 60.222 14.847l21.848 21.7c6.563 6.558 16.547 7.831 24.332 3.152 52.324-31.485 102.395-81.555 133.938-133.942 4.68-7.78 3.402-17.765-3.11-24.277l-21.793-21.941c-15.668-15.668-21.355-38.743-14.8-60.176a291.515 291.515 0 008.707-36.903C321.949 29.012 356.375 0 397.086 0c45.633 0 78.336 12.25 97.203 36.402 18.496 23.684 22.527 57.125 11.984 99.391-16.937 69.89-50.68 137.367-97.578 195.137-6.96 8.574-19.558 9.883-28.132 2.922-8.575-6.965-9.883-19.559-2.922-28.137 43.191-53.2 74.234-115.242 89.773-179.418l.035-.14c7.426-29.727 5.848-51.641-4.687-65.134C451.867 47.074 429.77 40 397.086 40c-21.106 0-38.941 14.98-42.414 35.617a331.923 331.923 0 01-9.899 41.969c-2.218 7.254-.351 15.008 4.88 20.234l21.796 21.946c19.48 19.484 23.223 49.578 9.043 73.14-34.754 57.723-89.926 112.895-147.586 147.586-23.562 14.18-53.656 10.438-73.187-9.094L137.867 349.7c-5.273-5.277-13.023-7.148-20.281-4.93a332.612 332.612 0 01-41.969 9.903C54.98 358.145 40 375.98 40 397.086c0 32.684 7.074 54.781 21.023 65.676 13.489 10.535 35.403 12.113 65.133 4.687 62.203-15.531 122.567-45.308 174.563-86.105 8.687-6.82 21.258-5.301 28.078 3.386 6.82 8.692 5.305 21.266-3.387 28.083-56.39 44.246-121.941 76.562-189.562 93.449C120.523 510.09 106.352 512 93.39 512zm0 0"/></svg></svg>